<svg version="1.1" viewBox="0 0 96 96" xmlns="http://www.w3.org/2000/svg" xmlns:xlink="http://www.w3.org/1999/xlink" id="Icons_Eyes" overflow="hidden"><style>
.MsftOfcThm_Background1_Fill {
 fill:#FFFFFF; 
}
</style>
<path d=" M 25 35.4 C 15.6 35.4 7.6 43.56 4.55 47.11 C 3.78102 48.0323 3.81962 49.3831 4.64 50.26 C 7.75 53.49 15.69 60.6 25 60.6 C 34.31 60.6 42.24 53.49 45.35 50.27 C 46.1807 49.3934 46.2195 48.0324 45.44 47.11 C 42.4 43.56 34.39 35.4 25 35.4 Z M 19.11 40.72 C 15.0912 43.9626 14.4619 49.8492 17.7045 53.868 C 18.2533 54.5481 18.8947 55.148 19.61 55.65 C 15.4894 54.0836 11.7423 51.6719 8.61 48.57 C 11.5597 45.2883 15.1278 42.6207 19.11 40.72 Z M 30.39 55.65 C 34.6171 52.6744 35.6316 46.8354 32.656 42.6084 C 32.1575 41.9002 31.5632 41.2647 30.89 40.72 C 34.8712 42.6223 38.439 45.2897 41.39 48.57 C 38.2558 51.6696 34.5093 54.081 30.39 55.65 Z" class="MsftOfcThm_Background1_Fill" stroke="none" stroke-width="1" stroke-dasharray="" stroke-dashoffset="1" fill="#FFFFFF" fill-opacity="1"/><path d=" M 91.44 47.11 C 88.44 43.56 80.44 35.4 71 35.4 C 61.56 35.4 53.6 43.56 50.55 47.11 C 49.781 48.0323 49.8196 49.3831 50.64 50.26 C 53.75 53.49 61.69 60.6 71 60.6 C 80.31 60.6 88.24 53.49 91.35 50.27 C 92.1807 49.3934 92.2195 48.0324 91.44 47.11 Z M 65.11 40.72 C 61.0912 43.9626 60.4619 49.8492 63.7045 53.868 C 64.2533 54.5481 64.8947 55.148 65.61 55.65 C 61.4894 54.0836 57.7423 51.6719 54.61 48.57 C 57.5597 45.2883 61.1278 42.6207 65.11 40.72 Z M 76.39 55.65 C 80.6171 52.6744 81.6316 46.8354 78.656 42.6084 C 78.1575 41.9002 77.5632 41.2647 76.89 40.72 C 80.8712 42.6223 84.439 45.2897 87.39 48.57 C 84.2558 51.6696 80.5093 54.081 76.39 55.65 Z" class="MsftOfcThm_Background1_Fill" stroke="none" stroke-width="1" stroke-dasharray="" stroke-dashoffset="1" fill="#FFFFFF" fill-opacity="1"/></svg>