<svg version="1.1" viewBox="0 0 96 96" xmlns="http://www.w3.org/2000/svg" xmlns:xlink="http://www.w3.org/1999/xlink" id="Icons_ScalesofJustice" overflow="hidden"><style>
.MsftOfcThm_Background1_Fill {
 fill:#FFFFFF; 
}
</style>
<path d=" M 48 20 C 49.1 20 50 20.9 50 22 C 50 23.1 49.1 24 48 24 C 46.9 24 46 23.1 46 22 C 46 20.9 46.9 20 48 20 Z M 60 80 C 60 78.9 59.1 78 58 78 L 51 78 L 51 27.2 C 51.9 26.7 52.7 25.9 53.2 25 L 72.4 25 L 66.8 54 L 70.9 54 L 75.3 31.2 L 80.9 54 L 85 54 L 77.7 25 L 79 25 C 80.7 25 82 23.7 82 22 C 82 20.3 80.7 19 79 19 L 53.2 19 C 52.7 18.1 51.9 17.3 51 16.8 L 51 11 C 51 9.3 49.7 8 48 8 C 46.3 8 45 9.3 45 11 L 45 16.8 C 44.1 17.3 43.3 18.1 42.8 19 L 17 19 C 15.3 19 14 20.3 14 22 C 14 23.4 15 24.7 16.4 24.9 L 10.7 54 L 14.8 54 L 19.2 31.2 L 24.9 54 L 29 54 L 21.7 25 L 42.7 25 C 43.2 25.9 44 26.7 44.9 27.2 L 44.9 78 L 37.9 78 C 36.8 78 35.9 78.9 35.9 80 L 35.9 82 L 24 82 L 24 88 L 72 88 L 72 82 L 60 82 L 60 80 Z" class="MsftOfcThm_Background1_Fill" stroke="none" stroke-width="1" stroke-dasharray="" stroke-dashoffset="1" fill="#FFFFFF" fill-opacity="1"/><path d=" M 32 57 L 8 57 C 8 60.3 13.4 63 20 63 C 26.6 63 32 60.3 32 57 Z" class="MsftOfcThm_Background1_Fill" stroke="none" stroke-width="1" stroke-dasharray="" stroke-dashoffset="1" fill="#FFFFFF" fill-opacity="1"/><path d=" M 64 57 C 64 60.3 69.4 63 76 63 C 82.6 63 88 60.3 88 57 L 64 57 Z" class="MsftOfcThm_Background1_Fill" stroke="none" stroke-width="1" stroke-dasharray="" stroke-dashoffset="1" fill="#FFFFFF" fill-opacity="1"/></svg>