<svg version="1.1" viewBox="0 0 96 96" xmlns="http://www.w3.org/2000/svg" xmlns:xlink="http://www.w3.org/1999/xlink" id="Icons_Sustainability" overflow="hidden"><style>
.MsftOfcThm_Background1_Fill {
 fill:#FFFFFF; 
}
</style>
<path d=" M 67.5 63.2 C 67.2333 63.2086 66.9782 63.3114 66.78 63.49 C 62.9402 66.3586 59.2893 69.4717 55.85 72.81 C 54.47 74.19 53.22 75.45 52.07 76.71 C 50.8119 74.3346 50.1528 71.688 50.15 69 C 49.9771 60.3378 56.8579 53.175 65.52 53 C 73.59 53.21 86.39 49.54 86.39 49.54 C 86.39 63.62 84.91 76.16 73.15 82.97 C 70.8485 84.3602 68.2088 85.0902 65.52 85.08 C 61.8267 85.0895 58.262 83.7242 55.52 81.25 C 52.61 84.5 50.65 87.25 50.65 88.52 L 47.41 88.52 C 47.41 86.58 49.03 83.83 51.53 80.79 C 51.81 80.45 52.41 79.79 52.41 79.79 L 68.65 64.39 C 68.6833 63.7668 68.205 63.2346 67.5818 63.2014 C 67.5546 63.1999 67.5273 63.1995 67.5 63.2 Z" class="MsftOfcThm_Background1_Fill" stroke="none" stroke-width="1" stroke-dasharray="" stroke-dashoffset="1" fill="#FFFFFF" fill-opacity="1"/><path d=" M 17.17 71.43 C 17.9245 72.8841 19.3684 73.853 21 74 L 39 74 L 39 82 L 21 82 C 16.4402 81.9171 12.2689 79.4143 10.05 75.43 C 7.92434 71.5845 8.10925 66.8769 10.53 63.21 L 20.93 45.21 L 14.07 41.21 L 30.81 36.73 L 35.29 53.47 L 28 49.28 L 17.56 67.38 C 16.669 68.5454 16.5178 70.116 17.17 71.43 Z" class="MsftOfcThm_Background1_Fill" stroke="none" stroke-width="1" stroke-dasharray="" stroke-dashoffset="1" fill="#FFFFFF" fill-opacity="1"/><path d=" M 31.32 30.14 L 39.69 14.51 C 41.8856 10.5599 46.0607 8.12151 50.58 8.15 C 54.9739 8.24012 58.9557 10.7586 60.92 14.69 L 71.32 32.69 L 78.18 28.69 L 73.7 45.48 L 57 41 L 64.28 36.79 L 53.79 18.68 C 53.2203 17.3275 51.9346 16.4135 50.47 16.32 C 48.9277 16.3964 47.5317 17.2567 46.77 18.6 L 38.39 34.23 Z" class="MsftOfcThm_Background1_Fill" stroke="none" stroke-width="1" stroke-dasharray="" stroke-dashoffset="1" fill="#FFFFFF" fill-opacity="1"/></svg>