<svg version="1.1" width="255" height="297" viewBox="0 0 255 297" xmlns="http://www.w3.org/2000/svg" xmlns:xlink="http://www.w3.org/1999/xlink" fill="#FF914D" overflow="hidden"><g id="change1_1"><path d=" M 166.7 92.3 C 172.2 92.3 176.7 96.8 176.7 102.3 C 176.7 107.8 172.2 112.3 166.7 112.3 C 161.2 112.3 156.7 107.8 156.7 102.3 C 156.7 96.8 161.1 92.3 166.7 92.3 Z M 88.3 92.3 C 93.8 92.3 98.3 96.8 98.3 102.3 C 98.3 107.8 93.8 112.3 88.3 112.3 C 82.8 112.3 78.3 107.8 78.3 102.3 C 78.3 96.8 82.8 92.3 88.3 92.3 Z M 10 92.3 C 15.5 92.3 20 96.8 20 102.3 C 20 107.8 15.5 112.3 10 112.3 C 4.5 112.3 0 107.8 0 102.3 C 0 96.8 4.5 92.3 10 92.3 Z M 245 92.3 C 250.5 92.3 255 96.8 255 102.3 C 255 107.8 250.5 112.3 245 112.3 C 239.5 112.3 235 107.8 235 102.3 C 235 96.8 239.5 92.3 245 92.3 Z M 166.7 184.7 C 172.2 184.7 176.7 189.2 176.7 194.7 C 176.7 200.2 172.2 204.7 166.7 204.7 C 161.2 204.7 156.7 200.2 156.7 194.7 C 156.7 189.2 161.1 184.7 166.7 184.7 Z M 88.3 184.7 C 93.8 184.7 98.3 189.2 98.3 194.7 C 98.3 200.2 93.8 204.7 88.3 204.7 C 82.8 204.7 78.3 200.2 78.3 194.7 C 78.3 189.2 82.8 184.7 88.3 184.7 Z M 10 184.7 C 15.5 184.7 20 189.2 20 194.7 C 20 200.2 15.5 204.7 10 204.7 C 4.5 204.7 0 200.2 0 194.7 C 0 189.2 4.5 184.7 10 184.7 Z M 245 184.7 C 250.5 184.7 255 189.2 255 194.7 C 255 200.2 250.5 204.7 245 204.7 C 239.5 204.7 235 200.2 235 194.7 C 235 189.2 239.5 184.7 245 184.7 Z M 166.7 0 C 172.2 0 176.7 4.5 176.7 10 C 176.7 15.5 172.2 20 166.7 20 C 161.2 20 156.7 15.5 156.7 10 C 156.7 4.5 161.1 0 166.7 0 Z M 88.3 0 C 93.8 0 98.3 4.5 98.3 10 C 98.3 15.5 93.8 20 88.3 20 C 82.8 20 78.3 15.5 78.3 10 C 78.3 4.5 82.8 0 88.3 0 Z M 10 0 C 15.5 0 20 4.5 20 10 C 20 15.5 15.5 20 10 20 C 4.5 20 0 15.5 0 10 C 0 4.5 4.5 0 10 0 Z M 245 0 C 250.5 0 255 4.5 255 10 C 255 15.5 250.5 20 245 20 C 239.5 20 235 15.5 235 10 C 235 4.5 239.5 0 245 0 Z M 166.7 277 C 172.2 277 176.7 281.5 176.7 287 C 176.7 292.5 172.2 297 166.7 297 C 161.2 297 156.7 292.5 156.7 287 C 156.7 281.5 161.1 277 166.7 277 Z M 88.3 277 C 93.8 277 98.3 281.5 98.3 287 C 98.3 292.5 93.8 297 88.3 297 C 82.8 297 78.3 292.5 78.3 287 C 78.3 281.5 82.8 277 88.3 277 Z M 10 277 C 15.5 277 20 281.5 20 287 C 20 292.5 15.5 297 10 297 C 4.5 297 0 292.5 0 287 C 0 281.5 4.5 277 10 277 Z M 245 277 C 250.5 277 255 281.5 255 287 C 255 292.5 250.5 297 245 297 C 239.5 297 235 292.5 235 287 C 235 281.5 239.5 277 245 277 Z" stroke="none" stroke-width="1" stroke-dasharray="" stroke-dashoffset="1" fill="#003F88" fill-opacity="1"/></g></svg>