<svg version="1.1" viewBox="0 0 96 96" xmlns="http://www.w3.org/2000/svg" xmlns:xlink="http://www.w3.org/1999/xlink" id="Icons_CircularFlowchart" overflow="hidden"><style>
.MsftOfcThm_Background1_lumMod_85_Fill {
 fill:#D9D9D9; 
}
</style>
<path d=" M 22.09 53.05 C 22 52.37 22 51.69 22 51 C 22.0008 40.949 27.7947 31.7987 36.88 27.5 C 36.3662 26.2262 36.0786 24.8726 36.03 23.5 C 25.0839 28.263 18.0034 39.0626 18 51 C 18 52.02 18.05 53.02 18.15 54 C 19.3989 53.459 20.7318 53.1377 22.09 53.05 Z" class="MsftOfcThm_Background1_lumMod_85_Fill" stroke="none" stroke-width="1" stroke-dasharray="" stroke-dashoffset="1" fill="#D9D9D9" fill-opacity="1"/><path d=" M 74 51 C 74 51.69 74 52.37 73.91 53 C 75.2712 53.1035 76.6042 53.4418 77.85 54 C 77.95 53 78 52 78 51 C 78.0018 39.0697 70.9343 28.2721 60 23.5 C 59.9514 24.8726 59.6638 26.2262 59.15 27.5 C 68.2236 31.8074 74.0047 40.9559 74 51 Z" class="MsftOfcThm_Background1_lumMod_85_Fill" stroke="none" stroke-width="1" stroke-dasharray="" stroke-dashoffset="1" fill="#D9D9D9" fill-opacity="1"/><path d=" M 63.28 72 C 54.1797 78.6532 41.8203 78.6532 32.72 72 C 31.9246 73.1036 30.9473 74.064 29.83 74.84 C 40.556 83.0387 55.444 83.0387 66.17 74.84 C 65.0527 74.064 64.0754 73.1036 63.28 72 Z" class="MsftOfcThm_Background1_lumMod_85_Fill" stroke="none" stroke-width="1" stroke-dasharray="" stroke-dashoffset="1" fill="#D9D9D9" fill-opacity="1"/><circle cx="48" cy="23" r="8" class="MsftOfcThm_Background1_lumMod_85_Fill" stroke="none" stroke-width="1" stroke-dasharray="" stroke-dashoffset="1" fill="#D9D9D9" fill-opacity="1"/><circle cx="73" cy="65" r="8" class="MsftOfcThm_Background1_lumMod_85_Fill" stroke="none" stroke-width="1" stroke-dasharray="" stroke-dashoffset="1" fill="#D9D9D9" fill-opacity="1"/><circle cx="23" cy="65" r="8" class="MsftOfcThm_Background1_lumMod_85_Fill" stroke="none" stroke-width="1" stroke-dasharray="" stroke-dashoffset="1" fill="#D9D9D9" fill-opacity="1"/></svg>