<svg version="1.1" viewBox="0 0 96 96" xmlns="http://www.w3.org/2000/svg" xmlns:xlink="http://www.w3.org/1999/xlink" id="Icons_TestTubes" overflow="hidden"><style>
.MsftOfcThm_Background1_Fill {
 fill:#FFFFFF; 
}
</style>
<path d=" M 88 79 L 88 23 L 84 23 L 84 32 L 78 32 L 78 18 C 78 15.9 78.4 15.1 78.5 14.9 C 79.4 14.7 80 13.9 80 12.9 C 80 11.8 79.1 10.9 78 11 L 78 11 L 62.1 11 C 61 10.9 60.1 11.8 60 12.9 C 60 13.8 60.6 14.6 61.5 14.9 C 61.6 15.1 62 15.9 62 18 L 62 32 L 56 32 L 56 18 C 56 15.9 56.4 15.1 56.5 14.9 C 57.4 14.7 58 13.9 58 12.9 C 58 11.8 57.1 10.9 56 11 L 56 11 L 40.1 11 C 39 10.9 38.1 11.8 38 12.9 C 38 13.8 38.6 14.6 39.5 14.9 C 39.6 15.1 40 15.9 40 18 L 40 32 L 34 32 L 34 18 C 34 15.9 34.4 15.1 34.5 14.9 C 35.4 14.7 36 13.9 36 12.9 C 36 11.8 35.1 10.9 34 11 L 34 11 L 18.1 11 C 17 10.9 16.1 11.8 16 12.9 C 16 13.8 16.6 14.6 17.5 14.9 C 17.6 15.1 18 15.9 18 18 L 18 32 L 12 32 L 12 23 L 8 23 L 8 79 L 4 79 L 4 85 L 92 85 L 92 79 L 88 79 Z M 74.3 15 C 74.1 15.8 74 16.8 74 18 L 74 27 C 74 27 72 26 70 26 C 68 26 66 27 66 27 L 66 18 C 66 16.8 65.9 15.8 65.7 15 L 74.3 15 Z M 52.3 15 C 52.1 15.8 52 16.8 52 18 L 52 27 C 52 27 50 26 48 26 C 46 26 44 27 44 27 L 44 18 C 44 16.8 43.9 15.8 43.7 15 L 52.3 15 Z M 30.3 15 C 30.1 15.8 30 16.8 30 18 L 30 27 C 30 27 28 26 26 26 C 24 26 22 27 22 27 L 22 18 C 22 16.8 21.9 15.8 21.7 15 L 30.3 15 Z M 84 79 L 12 79 L 12 36 L 18 36 L 18 67 C 18 71.4 21.6 75 26 75 C 30.4 75 34 71.4 34 67 L 34 36 L 40 36 L 40 67 C 40 71.4 43.6 75 48 75 C 52.4 75 56 71.4 56 67 L 56 36 L 62 36 L 62 67 C 62 71.4 65.6 75 70 75 C 74.4 75 78 71.4 78 67 L 78 36 L 84 36 L 84 79 Z" class="MsftOfcThm_Background1_Fill" stroke="none" stroke-width="1" stroke-dasharray="" stroke-dashoffset="1" fill="#FFFFFF" fill-opacity="1"/></svg>