<svg version="1.1" width="500" height="500" viewBox="0 0 500 500" xmlns="http://www.w3.org/2000/svg" xmlns:xlink="http://www.w3.org/1999/xlink" fill="#000000" overflow="hidden"><style>
.MsftOfcThm_Accent5_lumMod_40_lumOff_60_Stroke {
 stroke:#BDD7EE; 
}
</style>
<g id="change1_1"><path d=" M 250 500 C 249.216 500 248.567 499.393 248.512 498.612 C 240.764 386.373 233.631 330.013 201.808 298.191 C 169.986 266.368 113.626 259.235 1.387 251.487 C 0.607 251.434 0 250.784 0 250 C 0 249.216 0.607 248.567 1.388 248.512 C 113.626 240.764 169.987 233.631 201.809 201.808 C 233.631 169.986 240.764 113.626 248.513 1.387 C 248.567 0.607 249.216 0 250 0 C 250.784 0 251.434 0.607 251.487 1.388 C 259.235 113.626 266.368 169.987 298.191 201.809 C 330.013 233.631 386.373 240.764 498.612 248.513 C 499.393 248.567 500 249.217 500 250.001 C 500 250.785 499.393 251.435 498.612 251.488 C 386.373 259.236 330.013 266.369 298.191 298.192 C 266.368 330.014 259.235 386.374 251.487 498.613 C 251.434 499.393 250.784 500 250 500 Z M 22.471 250 C 121.707 257.335 173.453 265.618 203.917 296.082 C 234.381 326.547 242.664 378.293 249.999 477.528 C 257.334 378.292 265.617 326.546 296.081 296.082 C 326.546 265.618 378.292 257.335 477.527 250 C 378.291 242.665 326.545 234.382 296.081 203.918 C 265.617 173.453 257.334 121.708 249.999 22.472 C 242.664 121.708 234.381 173.454 203.917 203.918 C 173.453 234.382 121.707 242.665 22.471 250 Z" class="MsftOfcThm_Accent5_lumMod_40_lumOff_60_Stroke" stroke="#BDD7EE" stroke-width="12.5" stroke-dasharray="" stroke-dashoffset="1" stroke-opacity="1" fill="#FFC000" fill-opacity="1"/></g></svg>