<?xml version="1.0" encoding="UTF-8" standalone="no"?><svg xmlns="http://www.w3.org/2000/svg" xmlns:xlink="http://www.w3.org/1999/xlink" contentScriptType="text/ecmascript" fill="#000000" width="889.6" zoomAndPan="magnify" contentStyleType="text/css" viewBox="-1.5 -1.4 889.6 617.4" height="617.4" preserveAspectRatio="xMidYMid meet" version="1"><g id="change1_1"><path fill="#f8f2e9" d="M445.6,331c0,0,0.3,1.4-0.3,2.4c-0.6,1-3.3,0.3-3.3,0.3s-0.2,1.5-0.7,2.5c-0.5,1.1-2.4-0.4-2.4-0.4 s0,1.9-0.7,2.8c-0.7,0.9-2.7,0-2.7,0s0,0-0.6,1.3c-0.6,1.3-0.4,1.5-5,4.5c-4.7,3.1-8.5,6.9-9.8,8.5c-1.3,1.7-3.1,3.3-5.5,5.6 c-2.5,2.3-2.8,2.1-4.3,5c-1.4,2.9-2.6,7-2.6,7s1.7,4.3,3.9,6.4c2.2,2,5.1,4,11.2,5c6,0.9,8-0.1,8.1,1.6c0.2,1.8-5.2,1.4-5.7,1.5 c-0.4,0.1,0.9,0.2,0.6,1.3s-2.4-0.7-1.3,1.4c1.1,2.1-3.9,1-1.6,2.1c2.2,1.1-0.2,1.3-4.4,0.7c-3.3-0.5-6.8-1-10.7-1.5 c0.9,2.4,3,3.7,5.5,5.7c4.1,3.3,3.4,4,1.6,3.8c-1.8-0.2-5.3-2.3-5.3-2.3s2.1,2.5,1.7,2.8c-0.4,0.2-1.1,0.9-5.3-2.2 c-3.6-2.6-6-6.9-8.6-9.6c-1.3-0.3-2.7-0.6-4.5-0.7c-4.6-0.4-6.4-0.7-12.3-2.7c-5.8-2-8.1-2.6-11.7-5.4c-3.6-2.8-4-1.4-4.9,0.2 c-0.9,1.6-3.3,0.2-4,1.5c-0.8,1.3-4.3-0.4-4.2,0.8c0.1,1.2-1,1.3-3.1,1.4c-2,0.1-1.4,0.7-2.5,1.6c-1.1,0.9-4.2-0.4-4.3,0.1 c-0.2,0.5-0.5,1.6-2.7,1.3c-2.1-0.3-3,0.1-3,0.9c-0.1,0.8-3.5,1.1-5.4,1.1c-1.9,0-3.7,0-3.7,1c-0.1,0.9-4.8-0.5-5.7,0.8 c-0.9,1.3-2.8,0.1-2.8,0.1s-0.5,1.3-1.9,1.9c-1.4,0.6-4.2,0.4-5.8,2c-1.6,1.7-4.4-0.4-5.1,0.9c-0.6,1.3-3.8,0.1-4.3,1.3 c-0.5,1.2-8.4,0.6-8.4,0.6s2.2,1.9-1.3,1.8c-3.5-0.1-7.8,0.6-12.6,2.7c-4.9,2.1-8,1.6-10.4,1.3c-2.4-0.3,0-2.7,4.9-2.8 c4.9-0.1,5.6-0.3,13.8-4.5c8.3-4.2,17.6-11.9,30.2-18.3c12.6-6.3,23.5-10,36.4-9l-1.5-1.6c-4-1.5-6.6-3.1-2.9-3 c3.7,0,2.9,1.1,6.7-2.2c3.8-3.3,5.5-3.1,13.4-2.1c7.9,1.1,7.1,0.9,15.3-6.4c0,0,8.4-10.3,12.8-15.7c4.4-5.4,4.6-7.7,11.7-11.1 c7.1-3.4,21.6-11.5,34.6-18.6c12.9-7.1,24.3-17.2,30.6-22.4c6.3-5.3,7.1-9.4,8.4-9.5c1.2-0.1,0.2,4.5,0.2,4.5s1.4-1,2.1,0.3 c0.7,1.3-1.9,3.7-2.5,4.8c-0.6,1.2-1.2,4-4.2,8c-3,4-3.3,5.1-4.3,6.9c-0.9,1.8-6.6,7.4-9.9,10.3c-3.3,2.9-5.9,6.5-8.6,8.4 c-2.7,1.8-4.2,3.8-4.7,5.1c-0.5,1.3-3.6,1.7-3.6,1.7s0.2,2.3-0.1,3.1c-0.3,0.8-3.1,0.3-3.1,0.3s-0.1,1.8-0.3,3 C448,331.9,445.6,331,445.6,331z M380.9,487.4c-8.5-5.9-9.6-6.3-15.1-0.9c-5.5,5.4-10,11-18.9,9.6c-8.9-1.3-19-5.2-28.6-13.1 c-9.6-7.9-16.5-10.6-30.4-16.5c-13.9-5.9-26.9-3.9-41.8,3.4c-14.9,7.3-24.1,13.8-35.3,25.8c-4.5,6-4,7.4-0.9,5.9 c1.9-1.5,2.8-2.6,2.3-1.2c-0.5,1.5-1.7,4.5-0.6,4.6c1.1,0.1,3-2.9,4.3-3.2c1.3-0.2-0.7,4.1,0.9,4.3c1.5,0.2,3.2-1.8,5.1-3.2 c1.9-1.4,3.8-2.8,3-0.2c-0.8,2.6-0.1,5.4,1.6,3.5c1.7-1.9,1.4-3,4-3.2c2.6-0.2,3.7,0.7,4.9-0.3c1.2-0.9,4.5-0.6,5.7-2 c1.2-1.3,3.4,0.7,4.8-0.6c1.4-1.3,4.2-0.8,5.8-0.7c1.6,0.1,3.8-1,5.1-2.6c1.4-1.7,4.8,1.2,6.6-0.8c1.8-2,4.9-1.1,6.2-2.8 c1.4-1.7,5.3,0.5,6.9-1.6c1.6-2.1,3.2,0.1,4.4-1.3c1.2-1.4,1.8-2.7,1.8-2.7s2.5,0.7,4.4-0.7c1.9-1.4,5.4-0.1,6.3-1.2 c1-1.1,7.2-0.6,12.9,0.8c5.7,1.4,9.3,6.3,9.3,6.3c-6.1,0.7-9.4,6.7-7.1,13l0.5,1.8c0,0-1.6,8.7-1.5,8.3c0.1-0.4,4.9-4.5,4.9-4.5 s4.1,2.7,8.8,6.5c4.7,3.9,5.4,5.1,11.7,7c4.1,1.2,8.1,2.5,11.1,3.3c-0.7,3.1-2.4,11.6-1.4,14c1.2,3,1,4.8,2.5,8.1 c1.6,3.3,2.9,2.7,3.3-1.4c0.4-4.1-3.1-7.9-3.2-8.8c-0.1-0.9-0.4-2.6-1-2.5c-0.5,0.1,0.6-4.4,1.5-8.9c1,0.3,1.8,0.5,2.3,0.6 c2.1,3.1,4.4,6.2,6.6,9c-1.6,7-2.4,12.3-1.3,16.4c1.2,4.4,1.6,5.9,2.5,5.1c1-0.7,1.4-3,0.6-6c-0.8-3,0.2-4.6-0.6-5.2 c-0.7-0.6-1.6-2.4,0.2-8.6c3.5,4.3,6.4,7.4,7.3,7.5c1.6,0.2,2.7-0.4,2.7-0.4s1.7,1.3,2.9,0.8c1.2-0.5,1.4-0.9,1.4-0.9s5,1.6,6.2,0.7 c1.2-0.8,1.1-1.8,1.1-1.8s4.3,1.3,5.3,0.7c1-0.6,0.5-2.5,0.5-2.5s4.3,1.7,5.1,0.8c0.9-0.9,0.8-2.3,0.8-2.3s3.3,0,3.7-0.8 c0.4-0.9-0.7-2.4-0.7-2.4s2.7-0.4,2.6-1.6c-0.1-1.2-1.6-0.7-4.4-1.4c-2.8-0.7-11.6-4.9-17.6-9.7c-1.4-6.5-3.7-8.1-5.6-10.1 c-1.9-2-3.6-4.7-3.6-4.7s8.4-3,12.6,1.1c4.2,4.1,9.4,7.7,10.4,6.5c1-1.2,3.4,1.1,5.1,0.3c1.6-0.8,0.1-1.2,0.1-1.2s3.1,0.7,3.3,0.1 c0.2-0.5-0.1-1.3-0.1-1.3s2,1,2.7,0.6c0.8-0.4,0.2-1.2,0.2-1.2s3,0.6,8,11.9c4.9,11.2,13.6,29.1,17.3,39.4c2.6,5,3.6,3.3,2.9,0.7 c-0.7-2.6-0.6-2.9,1.2,1.5c1.8,4.4,3.8,4.5,1.2-4c-2.7-8.5-1.8-7.7-0.1-5.7c1.7,2.1,2.7,5.9,3.2,4.7c0.5-1.2-11.6-28.5-22.6-47.1 C398.1,499.6,389.4,493.4,380.9,487.4z M500.8,462.9c0,0,1.7,4,7.2,8.7c5.4,4.8,11.6,6.3,17.5,7.7c5.9,1.4,6,1.4,8.3,2.7 c2.3,1.3,5.3,2.3,3.9,0.5c-1.3-1.8-1.5-3.5,0.4-2.1c1.9,1.4,7.8,3,10,2.7c2.2-0.3,2.4-1.6-1.1-2.3c-3.5-0.7-2.9-0.9-5.9-3.8 c-2.9-2.9-5.3-8-5.3-8s1.5,0.6,3.6,0.8c2.1,0.2,1.2-0.5,3.9,0c2.6,0.5,2-0.2,4,0.2c2,0.4,2-0.6,3.5-0.2c1.5,0.4,2.5,0.3,5.3,0.6 c2.9,0.3,4.7,0.8,5.3,1.1c0.6,0.3,3.2,1.1,5.3,1.5c16.6,16.8,31.1,37.9,31.7,37.5c1.2-2-11.9-17.7-24.1-32.9 c-12.2-15.2-20-21.4-25.2-24.4c-5.2-3-7.6-2.6-11,0.1c-3.5,2.8-3.9,3.6-11.6,4.1c-7.8,0.5-7.8-2.2-12.7-3.7 c-8-2.5-10.5-1.9-13.6,0.6c-2,1.6-11.3-3.5-18-6.4c-6.8-2.9-6.3-3.6-12.2-0.3c-5.8,3.3-12.6,13-17,22.3c-4.5,9.4-6.6,20.8-6.3,23.9 c0.3,3.1,2.5-0.8,2.8,1.5c0.3,2.2,2.7-0.6,2.7-0.6s1.4,0.7,3.7-1.7c2.4-2.3,7.9-7.1,19.2-19.3C486.2,461.5,493.4,461.5,500.8,462.9z M76.7,70.3c2.7,1.1,5.3,7.5,8.5,9.1c3.2,1.6,3.4,4.6,5.2,5.4c1.8,0.8,2.9,1.2,3.3,2.7c0.5,1.4,0.8,1.7,3.1,2.5 c2.3,0.8,2.5,0.4,3,1.8c0.5,1.4,1.2,1.5,2.8,2.4c1.6,0.9,2.3,0.2,3.1,1.9c0.8,1.7,1.5,4.2,3.5,4.6c2.1,0.4,2,0,4.6,2.9 c2.5,2.9,3.3,3.7,5.6,3.4c2.3-0.2,1.1,2.9,4.3,5.1c3.1,2.2,6,2.5,6,2.5s2.6,3,4.7,3.4c2.1,0.4,2.8,0,2.8,0s2.4,4.2,5.9,5.2 c3.5,1,2.2-0.4,2.2-0.4s5,4.6,7.3,5.3c2.3,0.6,2.6,0.1,2.6,0.1s1.1,3.2,3.8,4c2.7,0.7,2.9,0.1,2.9,0.1s2.1,2.5,4.7,4.6 c2.7,2,5.2,4.2,7.1,4.2c1.9,0.1,3,1.6,4.4,1.7c1.4,0.1,3.5,0.3,3.5,0.3c1.9,19.7,18.8,34.4,26.3,41.4c-3.9,6.9,1.7,14.7,4.2,19.8 c0.8,1.7,2.1,4,3.4,6.2c-2,6.2-4.2,13.8-4.1,19.9c0.2,9.6,1.6,16.5,2.7,16.1c1.1-0.4-0.1-10.2-0.1-10.2s2,5.2,2.7,4.8 c0.8-0.4,0-4.1,0-4.1s0.4,0.9,1.1,0c0.7-0.9,0.2-3.8-1-10.3c-0.8-4.2-0.4-8.8,0.5-13.2c1.9,3,3.5,5.1,3.8,4.2 c0.5-1.8,2.3-1.3,3.6,1.7c0.5,1.1,1.6,2.9,2.9,4.8c-1,2-1.9,3.9-2.4,6.6c-1.3,6.9-4.2,19.2-3.4,19.5c0.8,0.2,1.2-1.9,1.2-1.9 s-0.8,4.5,0.3,4.1c0.9-0.3,1.2-3.5,1.3-4.6c0,0.7,0,1.9,1,1.9c1.3-0.1,1.6-8.3,2.1-11.7c0.5-3.4-0.7-5.2,0.8-9.8 c0.2-0.6,0.4-1.1,0.6-1.6c1.5,2.2,2.8,4.2,3.2,5.1c1,2,4.6,4.5,6.2,4.1c1.6-0.4,5.4,7.1,8,7.6c2.7,0.5,1.2-6.8,1.2-6.8l3.2-3.7 c0,0,2.2-1.1,4.3,2.5c2,3.6,8,11.5,12.4,9.7c4.4-1.8,4.7-4.3,4.7-4.3s8.6,2.4,10.8,0.2c2.1-2.2,1-3.6,1-3.6s7.6,0.6,8.8-1.4 c1.2-2,0.3-4,0.3-4s4.2-1,5.2-2.4c1-1.4,0.3-4.2,0.5-4.8c0.2-0.6,1.9,0.1,3.1-3.3c1.1-3.4,0.6-5.4-3.3-7.6c-3.9-2.2-28.4-13-43-25.7 c-1.2-2.7-2.5-8-2.5-8s6.9,1.5,10,2.1c3.1,0.6,8.7-0.4,8.7-0.4s5.2,0.8,8.1-0.6c3-1.3,3.4,1.8,5.6,0.9l2.1-0.7c0,0,3.1,2.1,5.1,0.3 c0,0,4,2.6,6.1,0.6c4.3,1.6,8-0.1,8-0.1c4.2,2.2,9.7-0.1,9.7-0.1c2.3,3.2,8.5,2.7,9.3,1.1c3.3,2.2,6.3-0.4,6.3-0.4 c3.7,3.1,6.2,2.4,7.2,0.9c3.2,1.4,7.9,2.4,9.3-0.2c3.6,2.9,8.3,2.6,9.6-0.1c4.2,2.3,9.5,1.5,10.1-1.4c5.1,2.2,6.2-1.4,6.2-1.4 s8.3,1.5,8.9,0c0.6-1.5-0.4-2.7-0.4-2.7s10.5,3.1,11.8-0.5c11.7,0,15.8-1,14.9-3.3c15.4-0.4,18.7-2.7,19.3-5.8 c12.7-2.1,14.8-2.5,15.3-6.6c18-5.9,20.6-8.2,21.2-12.9c12.9-6.6,15.3-9.5,14.9-10.9c-0.4-1.4-5.4-0.5-5.4-0.5s18.4-8.7,19.2-11.5 c0.8-2.9-8.3,2.1-8.3,2.1c2.2-3.4-0.1-4.4-0.1-4.4s16.2-10.4,16.2-12.7c0-2.3-9.2,2.8-9.2,2.8s9.3-6.5,9.1-7.8 c-0.1-1.3-9.7,4.8-18.8,11.3c-9.1,6.5-47.4,23.1-81,23.9c-33.6,0.7-44.2,0.4-58.5-0.4c-14.4-0.7-20.9-1.9-38.7-1.7 c-20.7-1.2-37.6-4.6-47.6-3.5c-10,1.1-22.5,0.6-32.6-8.7c-4.6-4.7-11.5-7-15.3-9.2c-3.7-2.2-5.7-14.1-10.1-18.1 c-2.6-2.1-8.3-4.6-11.7-4.8c-0.4,0-0.8,0-1.1,0c-1.4-2.2-2.7-3.7-3.7-4.2c-0.6,1.7-0.4,4.1,0.2,6.6c-2.5,4.7-3.8,16.7-3.8,16.7 c-8.2-6-22.1-15.4-53.1-28.8c-30.9-13.4-56.1-21-64.5-36c-8.5-15-14.9-23.7-17.8-32.9c-2.9-9.2-6.4-12.2-7.3-6.8 c-0.9,5.3-2.1-1-3.8-4.1c-2.7-6-6.6-6.8-6.7-0.3c-0.1,6.4-0.6,4.8-0.6,4.8S21,0,18,1.5c-3,1.4-5.1,17.7,6.1,32.7 C35.4,49.2,44.9,59.8,76.7,70.3z M888,392.3c-0.2-0.2-0.4,0-0.4,0s0.1-0.9-0.1-0.8c-0.2,0-0.3,0.8-1.4,1.9c-1.1,1.1-3.1,3.1-5.4,4.5 c-2.3,1.5-4.9,3.2-6.2,3.9c-1.3,0.7-1.3,1.2-2,2.2c-0.8,1.1-2.2,3.1-2.2,3.1c-1.4,1.5-1.3,1.5-2.8,1.4c-1.5-0.1-1.8-0.1-2.5,0.6 c-0.7,0.7-0.5,0.4-1.2,0.5c-0.7,0-0.2,0.3,0.6,0.5l0.3,0.3c-2.4,0-4.4,0.8-6.6,2.1c-2.3,1.3-3.9,2.9-5.4,3.8c-1.5,0.9-1.6,0.9-2.5,1 c-0.9,0.1-1.3,0.6-0.9,0.6c0.5,0,1,0.1,1.9-0.4c0.9-0.5,1.7-0.6,2.3-0.7c0.7,0,0.2-0.4,0.2-0.4s1.5,0,1.6-0.2c0.1-0.2,0.7,0,0.8-0.3 c0.1-0.3,0.7,0.1,0.9-0.2c0.3-0.3,0.8-0.3,1.1-0.5c0.3-0.1,0.3-0.4,0.3-0.4s0.4,0.2,0.5-0.1c0.2-0.3,1.1,0,1.1-0.2 c0-0.2,0.3-0.2,0.7-0.2c0.4,0,1-0.1,1-0.3c0-0.2,0.2-0.2,0.6-0.2c0.4,0,0.5-0.2,0.5-0.3c0-0.1,0.6,0.1,0.8-0.1 c0.2-0.2,0.1-0.3,0.5-0.3c0.4-0.1,0.6-0.1,0.6-0.3c0-0.2,0.7,0.1,0.8-0.2c0.1-0.3,0.6,0,0.7-0.3c0.2-0.3,0.2-0.6,0.9-0.1 c0.7,0.5,1.1,0.6,2.2,0.9c1.1,0.3,1.5,0.3,2.3,0.4c0.3,0,0.6,0,0.8,0.1c0.5,0.5,1,1.2,1.7,1.7c0.8,0.5,0.9,0.4,1,0.3 c0.1,0-0.4-0.5-0.4-0.5s0.7,0.3,1,0.4c0.3,0,0.4-0.1-0.4-0.7c-0.5-0.3-0.9-0.6-1.1-1c0.7,0,1.4,0.1,2,0.1c0.8,0.1,1.2,0,0.8-0.2 c-0.4-0.2,0.5,0,0.3-0.4c-0.2-0.4,0.2-0.1,0.2-0.3c0.1-0.2-0.2-0.2-0.1-0.2c0.1,0,1.1,0,1-0.4c-0.1-0.3-0.4-0.1-1.5-0.2 c-1.1-0.1-1.7-0.4-2.1-0.8c-0.4-0.4-0.8-1.1-0.8-1.1s0.2-0.8,0.4-1.3c0.2-0.6,0.3-0.5,0.7-1c0.4-0.5,0.7-0.8,1-1.1 c0.2-0.3,0.9-1.1,1.7-1.7c0.8-0.6,0.8-0.7,0.9-0.9c0.1-0.3,0.1-0.3,0.1-0.3s0.4,0.2,0.5,0c0.1-0.2,0.1-0.5,0.1-0.5s0.4,0.3,0.5,0.1 c0.1-0.2,0.1-0.5,0.1-0.5s0.5,0.1,0.6-0.1c0.1-0.2,0-0.5,0-0.5s0.5,0.1,0.5-0.1c0-0.2,0-0.6,0-0.6s0.5,0,0.6-0.1 c0.1-0.2,0-0.6,0-0.6s0.6-0.1,0.7-0.4c0.1-0.2,0.3-0.6,0.8-1c0.5-0.4,0.9-1.1,1.5-1.7c0.6-0.6,1.6-1.7,1.7-2 c0.2-0.4,0.2-0.6,0.7-1.3c0.5-0.8,0.6-1.3,0.7-1.5C887.7,393,888.1,392.5,888,392.3z M790.6,565.4c-2.7,1.4-10.3,4.7-28.2-0.6 c-25.4-9.4-46.5-18.9-65.8-14c-0.7-4.9-8.5-6.8-8.5-6.8c-3.8-12.3-7.1-15.6-13.9-22.6c-6.8-7-21.5-19.9-26.2-28.8 c-4.7-8.9-3.9-13.9-5.5-13.8c-1.6,0.1-0.9,8.1,1.7,13.1c2.6,5,10.7,13.6,18.4,21.9c7.7,8.3,17.2,20.9,20.4,29.2 c-3.9,13.5,0,18.3,3.9,21.8c3.9,3.5,7.6,4.6,10,7.6c2.4,3,4,1.7,3.9,0.3c-0.1-1.4,4,1.7,3.7-1.7c-0.4-3.4-3.9-11-3.9-11 c13.8-5.3,22.7-4.7,39.3,0.7c16.5,5.4,40.2,13.9,52.4,5.5C793.6,564.8,793.3,564,790.6,565.4z M841.6,484c-8.1,0.1-29,1.2-37.8,5.9 c-8.8,4.6-16.2,12.4-19.6,12.9c-3.3,0.5-6.6-1.8-11.4,0.8c-5.6-5-18.5-10.4-26.7-11.7c-8.2-1.3-14.8-1.6-19.4-2.1 c-1.8,0.1-0.3,1.2,0.9,1.1s1.3,1.4,2.7,1.6c1.4,0.3,0.9,1.4,2.7,1.2c1.8-0.1,1.3,1.8,3.4,1.8c2.1,0,1.8,1.7,3.5,1.4 c1.7-0.3,1.9,0.8,4,0.8c2.1,0,3,0.6,4.4,0.9c1.4,0.3,6.8,0.4,10.6,0.9c3.8,0.5,11.7,4.9,13,6.2c1.3,1.4-0.2,4.7,4.5,8.3 c3,2.5,11.9,7,17.6,5.6c5.7-1.4,8.1-4.8,10.2-7.6c2.1-2.8,2-4.2-0.2-2.4c-2.2,1.8-0.4-1.3-2.6-0.2c-2.1,1-3.9,4.6-6.1,2.2 c-2.1-2.4-2.5-3.9-3.6-4.6c-1.1-0.7,5.6-2.7,11.6-6.9c6-4.2,19.1-9.4,29.9-10.1c6.6-0.1,8.3-0.4,7.9-1.2c-0.4-0.8,3.2-0.4,3.5-1.2 c0.3-0.8,2-0.6,1.9-1.2c0-0.6,3.2,0,3.2-1.4C849.8,483.8,849.7,484,841.6,484z M614.8,584.9c-12.9-11-20.1-18-32.4-21.2 c-7.5-2.2-8.4-3.5-8.4-3.5c-0.3-1.4-3.7-4.1-9.3-5.3c-5.6-1.2-7.6-1.4-11.6,2.4l-0.1,0.4l-2.9,0.6c0,0-3-0.8-6.9,0.2 c-3.9,1-7.4-1.5-17.4,2.8c-10,4.3-20.4,13.2-26.5,17c-6,3.8-5.3,5.2-4.8,5.6c0.6,0.4,4.3-0.2,7.3-1.5c3-1.4,10.6-3.4,18.1-6.7 c7.6-3.3,16.6-6.1,19.3-6.6c2.7-0.5,8.5-2.1,11.8-2.5c3.3-0.5,2.9-0.4,5.5,2.9c2.7,3.4,6.5,10.5,22.9,12.9c4,4.6,7,6.5,8.8,7 c1.7,0.4,2.2-0.4,2.2-0.4s1.2,0.8,1.2-0.2c0-1-2.7-4.3-2.7-4.3s7.5,2.4,8.2,1.6c0.8-0.8,2.6-0.7,2.6-0.7s12.6,12.1,22.5,19.2 c13.3,9.9,24.7,11.4,25.7,10.1C635,600.9,627.8,596,614.8,584.9z M856.3,449.6c-6.3-3.5-9.8-5.4-13.5-4.9c-3.7,0.5-6.7,1.2-6.7,1.2 l-1.1-1.4c-0.1-4.5-1.8-7.5-5.8-12.7c-4-5.2-4.8-8.5-5.7-8.3c-0.9,0.2,0.7,5.5,3.2,9.7c2.5,4.2,3.5,6.3,3.3,9.2 c0.1,0.9-0.3,1.9-0.3,1.9s-1.8-1.7-2.3-1.4c-0.5,0.3,0.3,3.3,0.9,4.9c0.6,1.6,2.9,3.5,5.2,3.4c2.3-0.2,3.2-1.2,3.2-1.2 s5.4,1.5,5.8,1c0.4-0.5-5.2-2.3-5.4-3.1c-0.2-0.8,6-1.5,10.1-0.5c4.1,1,7,2.4,10.9,4.5c3.9,2.1,6.2,2.6,6.3,1.7 C864.5,452.8,862.6,453.1,856.3,449.6z M208.2,370.4c7.8,1.5,9.6,1.6,9.4-1.1l-0.5-1.1c0,0,3.7-0.9,4.1-3.1c1-0.9-1-2.5-1-2.5 s3.6,2.4,3.6-1.3c0-3.7,5.8-2.8,7.3-6c1.5-3.2,7.5-4.2,8.7-8.8c3.2-1.2,3.4-6.1,3.4-6.1s2.7-1.1,2.7-3.9c0-2.8-3.3-2.2-3.3-2.2 s8.5-5.8,8.4-9c-0.1-3.2-6.7,3.5-10.8,2.4c-4-1.1,11.3-5.6,9.5-11.5c-0.8-2.9-10.4,6.1-11.6,5.1c-1.2-1,9.5-8.2,7.4-11.5 c-2.1-3.4-6.8,6.7-12.7,6.8c-5.9,0.1,6.1-7.6,3.6-11.6c-1.9-3.2-7.6,7.2-12.3,6.7c3.9-6.9,5.5-11.3,3.5-11.9 c-2-0.6-9.7,9.6-16.5,13.6c6.2-7.2,7.9-12.4,5.4-13.2c-2.5-0.7-9,10.6-21.4,20.5c-12.4,9.9-26.1,15.1-32.7,16.7 c-6.6,1.6-2.9-5.5-8.1-1.9c-5.3,3.6-13.1,12.7-18.9,16.4c-9.6-6.3-12.1-9.1-17.7-10.5c-5.6-1.4-7.7-2.6-9.2-6.2 c-1.5-3.6-3.3-5.3-6.7-4.8c-3.4,0.5-3.3-0.2-6.4-3.5c-3.1-3.3-3.3-2.2-10.1-5.4c-6.8-3.2-6.2-5.5-10.2-8.2c-4-2.7-4.3-5.1-6.5-7.9 c-2.2-2.8-5.1-3.3-5.1-6c-0.1-2.8-1.7-3.3-4.1-3.6c-2.3-0.4-0.9-3.8-3.2-5.5c-2.4-1.7-6.8-1.4-8.4-2.3c-1.6-0.9,0.7-3.6-1.5-4.6 c-2.2-1-5.3-1.9-5.3-1.9s0.1-4-1.8-5c-1.8-1-5.6-1.1-5.7-1.4c0-0.2,1.5-6.2-1.2-6.7c-2.7-0.4-5,0.3-5.2,0.1c-0.2-0.2-0.4-6.9-3-6.8 c-2.6,0.1-5.4,2.5-5.4,2.5s0.9-7.5-2.6-7.5c-3.6-0.1-7.1,6.2-7.1,6.2s-0.8-7.6-4.4-5.9c-3.6,1.7-6.1,16.7-3.3,27.1 C4,294.6,14,308.3,19.3,310c5.3,1.7,5.3,1.9,11.5,7.4c6.2,5.6,9.8,5,14,7.2c4.2,2.2,16.5,8,26.9,16.5c10.4,8.5,18,14.1,17.9,17.6 c-5.9,2.1-18.1,13.2-18.5,19.7c-0.4,6.5-0.6,11.6-4.3,16.9c-3.7,5.3-5,11.2-3.7,11.4c1.3,0.2,1.8-8.4,5.5-8.5l5.2,0.6 c0,0-3.8,12.9-2.6,12.4c1.3-0.5,2.1-5.3,4.3-9.3c2.1-4.1,4.3-4.3,7.6-8.1c3.3-3.9,4.4-3.5,4.4-3.5c7.9,3.9,18.9,7.2,30.7,10.2 c-5.9,2.7-14.9,8.9-17.9,10.8c-3.6,2.3-3,3.6-5.6,5.8c-2.6,2.2-9.6,6.4-8.6,7.3c1,0.9,2.3-1.2,2.8-0.4c0.5,0.8-4.2,4.3-3.6,5.2 c0.6,0.9,5.7-4.4,7.5-5.3c1.8-0.8,1.1,1.6-0.2,2.8c-1.3,1.3-1.2,2.7,2.2-0.4c3.4-3,5.4-6.3,5.9-8.7c0.5-2.4,0.7-2.5,1.8-2.3 c1,0.2,1.9-2.7,2.3-3.6c0.4-0.9,8.6-6,17.4-10.3c2.2,0.5,4.4,1.1,6.6,1.6c2.6,0.7,4.7,1.1,6.5,1.4c-0.2,6.4-0.6,9.3-5.1,13.6 c-6.1,6-9.3,8.2-10.5,12.9c-1.3,4.6-4.9,16.1-3.8,15.7c1.1-0.4,1.2-1.8,1.2-1.8s0.1,1.4,0.8,1.2c0.7-0.2,1.1-2,1.1-2 s-0.1,1.7,0.5,1.6c0.6-0.2,1.1-2.2,1.1-2.2s1.4-4.9,3.4-12.4c1.7-5.1,6.7-9.1,10.2-12.8c3.5-3.7,3.5-2.7,4.6-5.8 c0.7-2,0.9-5.3,0.9-7.5c2.4,0.1,4.4-0.3,7.1-0.7c2.5-0.1,2.7-1.1,8.7,4.6c6,5.7,10.1,10,12,8.6c1.9-1.4-0.3-3.9-4.7-6.9 c-0.1,0-0.1-0.1-0.2-0.1c2.1,1.3,7.6,4.4,9,3c2-1.9-3.2-6.8-5.7-8.9c3.9,3.3,22.3,18.7,24.3,16.5c2.2-2.6-2.6-5.2-10.6-11.1 c-8.1-5.9-12.2-10.9-20.9-22.1c-8.7-11.1-11.5-13.2-11.5-13.2s3.8,1.2,13.1,2.6c9.3,1.4,9-0.1,9-0.1s7.6,2.8,6.6-0.4 c6.6,3.2,9,1.7,9,1.7c4.6,0,3.8-3.3,3.8-3.3s5.1,3.1,7.2,2.9c2.1-0.1,3.6-1.4,3.9-3.1c0.3-1.7,0.4-2.2,5-1 C209.1,375,208.2,370.4,208.2,370.4z"/></g></svg>