<?xml version="1.0" encoding="UTF-8" standalone="no"?><svg xmlns="http://www.w3.org/2000/svg" xmlns:xlink="http://www.w3.org/1999/xlink" contentScriptType="text/ecmascript" fill="#fcf7ee" width="20" zoomAndPan="magnify" contentStyleType="text/css" viewBox="2.0 2.0 20.0 20.0" height="20" preserveAspectRatio="xMidYMid meet" version="1"><g id="change1_1" data-name="Layer 36"><path fill="inherit" d="M12,2A10,10,0,1,0,22,12,10,10,0,0,0,12,2ZM16,13.32A1,1,0,0,1,15,14a1.25,1.25,0,0,1-.32-.05l-3-1A1,1,0,0,1,11,12V7a1,1,0,0,1,2,0v4.28l2.32.77A1,1,0,0,1,16,13.32Z"/></g></svg>