<?xml version="1.0" encoding="UTF-8" standalone="no"?><!-- Generator: Adobe Illustrator 21.0.0, SVG Export Plug-In . SVG Version: 6.00 Build 0)  --><svg xmlns="http://www.w3.org/2000/svg" xmlns:xlink="http://www.w3.org/1999/xlink" contentScriptType="text/ecmascript" zoomAndPan="magnify" contentStyleType="text/css" id="图层_1" enable-background="new 0 0 173.5 20.3" version="1.1" xml:space="preserve" width="173.6" fill="#000000" preserveAspectRatio="xMidYMid meet" viewBox="-0.1 0.0 173.6 20.2" height="20.2" x="0px" y="0px">
<g fill="#a12b2a" id="change1_1">
	<path fill="inherit" d="m44.5 1.2c0.1 0.1 0.1 0.1 0 0l1.6 0.5v-0.1h0.2l0.4 0.4h1.2s0.1 0 0.1-0.1-0.1-0.4-0.1-0.4c-0.3-0.1-0.6-0.2-0.9-0.3v0.1h-0.3c-0.1 0-0.1 0.1-0.2 0.1-0.3-0.2-0.7-0.4-1-0.5-0.2-0.1-0.5 0-0.8 0.1-0.1 0.1-0.1 0.2-0.2 0.2z"/>
	<path fill="inherit" d="m53.2 2.2c0.5 0 1-0.1 1.4-0.2 0.1 0 0.1-0.1 0.2-0.2h-0.2-0.7l-0.1-0.1c0-0.1 0.1-0.2 0.1-0.2s0.1 0 0.1-0.1c0.1 0.1 0.1 0.1 0.2 0.1h1.2 0.2c-0.1-0.1-0.1-0.2-0.2-0.3l-0.2-0.2h1.1c0.3 0.2 0.6 0.4 0.8 0.5v-0.1c0.2 0 0.4 0 0.6-0.1l0.1-0.1c0.4 0 0.7 0.1 1.1 0.1 0.1 0 0.2 0.1 0.3 0.1v0.1c0 0.1-0.1 0.2-0.1 0.3-0.1 0-0.1 0.1-0.2 0.1 0 0-0.1 0.1-0.2 0.1 0.1 0.1 0.2 0.2 0.4 0.2 0.7 0 1.3 0 2-0.1 0.2 0 0.4 0 0.5-0.1-0.2 0.1-0.4 0-0.6-0.1 0 0 0.1-0.1 0.1-0.2h-0.2-0.2c-0.1-0.1-0.3-0.2-0.4-0.3 0.2-0.1 0.4-0.1 0.6-0.2s0.4-0.2 0.7-0.3h0.5v0.1l0.2 0.2c0.1 0 0.2-0.1 0.2-0.1 1 0 2.1 0.1 3.2 0.1 0.1 0.1 0.2 0.1 0.4 0.2-0.2 0.1-0.4 0.2-0.7 0.3-0.2 0.2-0.3 0.3-0.4 0.3 0.1 0.1 0.2 0.2 0.4 0.2h0.8c0.1 0.1 0.2 0.2 0.3 0.2 0.4 0 0.8 0 1.2 0.1 0.1 0.1 0.1 0.2 0.2 0.2h1.2v0.2l0.4-0.2-0.1-0.1h1.9c0.2 0 0.2 0 0.2-0.4 0 0 0-0.1 0.1-0.1s0.3-0.1 0.4 0c0.7 0.8 1.4 0.6 2.1 0.6 0 0 0.1 0 0.1-0.1h0.3 1c0 0.1 0.1 0.1 0.1 0.1 0.5 0 1 0.1 1.5 0.1 0 0 0.1-0.1 0.1-0.2h0.4c0.2 0 0.2 0 0.2-0.4v-0.1c0.2-0.1 0.3-0.1 0.4-0.1h0.1c0.7 0.8 1.4 0.6 2.1 0.6 0.1 0 0.2-0.2 0.3-0.2-0.1-0.1-0.2-0.2-0.3-0.2-0.5 0-0.9 0-1.4 0.1-0.1 0-0.1-0.1-0.2-0.2 0-0.1 0.1-0.1 0.1-0.2 0.1 0 0.3-0.1 0.4-0.1 0.7 0.1 1.4 0.2 2 0.2h1.6c0.4 0 0.9 0.1 1.3 0.1 0.6-0.1 1.1-0.3 1.7-0.3 1.5 0 3.1 0 4.6 0.1 1.8 0 3.6-0.1 5.4 0 0.3 0 0.6 0.4 0.9 0.3 0.4-0.2 0.8-0.3 1.2-0.4h3.7c0.1 0.1 0.2 0.1 0.3 0.1h0.4c0.2 0.1 0.4 0.2 0.6 0.2s0.5-0.1 0.7-0.2h1c0.1 0 0.3-0.1 0.4-0.2l-0.2-0.2c0.1 0 0.2-0.1 0.3-0.1v0.2h0.2c0.1 0.1 0.2 0.3 0.3 0.3h0.4 0.7c0.1 0 0.1-0.1 0.2-0.2-0.1-0.1-0.1-0.2-0.2-0.2h-0.1l0.1-0.1v-0.2c-0.2-0.1-0.3-0.2-0.5-0.3h-2.7-0.3-0.8-8.7-0.1-3.1-1-1.5c-0.9 0-1.9 0.1-2.8 0.1-0.6 0-1.3-0.1-1.9-0.1h-1.5-1.1c-1.2 0-2.4-0.1-3.6-0.1-0.3 0-0.6-0.2-0.9-0.2-0.4 0-0.8 0.2-1.3 0.2s-0.9-0.2-1.4-0.3l-2.1-0.1h-1.6c-0.5 0-1 0-1.4 0.1 0 0 0 0.1-0.1 0.1-0.3-0.1-0.7-0.2-1-0.2l-0.1-0.1h-0.4s-0.1 0.1-0.1 0h-0.5-0.8-0.3-1-0.3-0.1-2.5-0.3-0.4s-0.1 0.1-0.1 0h-0.5-0.8c0 0.1 0 0.2-0.1 0.2-0.5 0-1-0.1-1.6-0.1h-0.1-2.5-0.3l-0.2-0.2c0 0.1-0.1 0.1-0.1 0.2-0.4 0.1-0.9 0.1-1.3 0.2v0.7c0 0.2-0.1 0.3-0.2 0.5 0.2 0.2 0.3 0.4 0.4 0.4zm21-0.1c-0.5 0-1-0.1-1.5-0.1-0.1 0-0.2 0.1-0.3 0.1l-0.1-0.1c0.1-0.1 0.1-0.2 0.2-0.3h0.3c0.5 0.1 1 0.1 1.5 0.2 0 0.1 0 0.2-0.1 0.2zm-3.4 0.1h-0.9v-0.1h-1.1c0.3 0 0.7-0.1 1-0.1h1c0.1 0 0.1 0.1 0.2 0.1-0.1 0-0.1 0.1-0.2 0.1zm6.3 0h-0.9v-0.1h-1.1c0.3 0 0.7-0.1 1-0.1h0.8 0.2s0.1 0 0.1 0.1c0 0 0 0.1-0.1 0.1zm-8.9-0.4c-0.1 0.1-0.2 0.3-0.2 0.3h-0.4c-0.1 0-0.2-0.1-0.3-0.1-0.2-0.1-0.4-0.3-0.7-0.4 0.5 0 0.9 0 1.4 0.1 0-0.2 0.1 0 0.2 0.1z"/>
	<polygon fill="inherit" points="139.9 7.4 139.8 7.4"/>
	<path fill="inherit" d="m92.5 3c-0.1-0.1-0.2-0.2-0.3-0.2-0.5 0.1-0.9 0.3-1.4 0.4-0.3 0.1-0.6 0.1-0.9 0.2-0.1 0-0.2 0.2-0.3 0.3 0.2 0.1 0.3 0.3 0.4 0.3h1.1 1.1c0.1 0 0.1-0.1 0.2-0.2l-0.2-0.2-0.3-0.3c0.1 0 0.2 0 0.3-0.1 0.1 0.1 0.2-0.1 0.3-0.2z"/>
	<path fill="inherit" d="m30.6 1.1c0.6 0 1.2 0.1 1.9 0 0.2 0 0.5-0.2 0.7-0.3l-0.9-0.2c-0.1 0-0.3 0-0.4-0.1s-0.1-0.3-0.1-0.5c-0.5 0.3-0.8 0.5-1.2 0.8 0 0-0.1 0.1-0.1 0.2l0.1 0.1z"/>
	<path fill="inherit" d="m141.5 3.6c-0.1 0-0.1 0.1-0.2 0.2 0.1 0.1 0.1 0.3 0.2 0.3 0.4 0.1 0.9 0.1 1.3 0.1 0.5 0 0.9 0.1 1.4 0.1 0.1 0 0.1-0.2 0.2-0.2 0-0.1-0.1-0.2-0.1-0.2-1-0.1-1.9-0.2-2.8-0.3z"/>
	<path fill="inherit" d="m40.4 2.1h1.2c0.1 0 0.1-0.1 0.2-0.1 0-0.1-0.1-0.4-0.1-0.4-0.3-0.1-0.6-0.2-0.9-0.3v0.1h-0.3c-0.1 0.1-0.3 0.2-0.4 0.3 0 0.1 0.1 0.4 0.3 0.4z"/>
	<path fill="inherit" d="m164.9 7.9c-0.5-0.1-1.1-0.2-1.6-0.2h-0.1c-0.1 0.1-0.1 0.1-0.1 0.2 0 0 0.1 0.1 0.1 0.2-0.4 0-0.9 0-1.3-0.1v-0.1l-2.9-0.1c-0.1 0-0.3 0.1-0.4 0.2 0.1 0.1 0.2 0.2 0.4 0.2l6.1 0.4c0.1 0 0.2-0.1 0.3-0.2l-0.1-0.1c-0.2-0.1-0.3-0.3-0.4-0.4z"/>
	<path fill="inherit" d="m49.1 1.5h0.2c-0.1-0.1-0.1-0.2-0.2-0.3-0.3-0.3-0.6-0.6-0.9-0.8-0.1 0.1-0.2 0.4-0.3 0.6-0.1 0.1-0.1 0.2-0.2 0.3 0.1 0.1 0.2 0.2 0.3 0.2h1.1z"/>
	<polygon fill="inherit" points="48.2 0.3 48.3 0.3 48.3 0.3"/>
	<path fill="inherit" d="m67.8 4h1.8c0.1 0 0.1-0.1 0.2-0.2-0.1-0.1-0.1-0.2-0.2-0.2s-0.3-0.1-0.4-0.1c-0.1-0.1-0.2-0.2-0.3-0.2h-1.5l-0.2 0.2c0 0.1 0.1 0.2 0.1 0.2h0.3l-0.1 0.1c0.2 0.1 0.2 0.2 0.3 0.2z"/>
	<path fill="inherit" d="m85.9 2.6c0-0.1-0.1-0.2-0.1-0.2-0.6 0-1.3-0.1-1.9-0.1-0.1 0-0.1 0.1-0.2 0.2 0.1 0.1 0.1 0.2 0.2 0.2h0.9 1s0-0.1 0.1-0.1z"/>
	<path fill="inherit" d="m112.2 4.6c0.4 0 0.9 0.1 1.3 0.1h0.2v-0.2c-0.2-0.4-0.8-0.5-1.3-0.4-0.1-0.1-0.3-0.2-0.5-0.1-0.1 0-0.3 0.3-0.4 0.4 0.1 0 0.3 0.1 0.4 0.1s0.2 0.1 0.3 0.1z"/>
	<path fill="inherit" d="m50.9 1.6v-0.1h0.3l1.2 0.4v-0.1h0.4s0.1 0 0.1-0.1l-0.1-0.1c-0.4-0.2-0.8-0.4-1.2-0.5h-0.1l-0.1-0.1-1.5-0.3h-0.3c0.1 0.1 0.2 0.3 0.2 0.3 0.4 0.2 0.7 0.4 1.1 0.6z"/>
	<path fill="inherit" d="m115.8 4.5c0.2 0.1 0.5 0.3 0.7 0.3s0.4-0.2 0.7-0.2l-0.4-0.2h-0.4l-0.6 0.1z"/>
	<path fill="inherit" d="m93.7 4.1h1.2c0.1 0 0.1-0.1 0.1-0.2 0 0 0-0.2-0.1-0.2-0.2-0.1-0.3-0.1-0.4-0.2-0.3 0.1-0.6 0.1-0.8 0.2-0.1 0-0.1 0.1-0.2 0.2l0.2 0.2z"/>
	<path fill="inherit" d="m93.2 2.7c0.1 0 0.1 0 0 0 0.1 0.1 0.2 0.1 0.3 0.1 0.1-0.1 0.3-0.2 0.6-0.3h-0.2c-0.3-0.1-0.5-0.2-0.8-0.4-0.2 0.1-0.5 0.2-0.7 0.3 0.3 0.1 0.5 0.3 0.8 0.3z"/>
	<path fill="inherit" d="m132.7 5.3s-0.1 0.1-0.1 0.2 0.1 0.1 0.1 0.2c0.1 0.1 0.2 0.1 0.3 0.2 0.4 0 0.7-0.1 1-0.1v-0.2c-0.3-0.1-0.7-0.3-1-0.4-0.1 0-0.2 0.1-0.3 0.1z"/>
	<path fill="inherit" d="m151.2 4.6c0.2 0 0.4-0.1 0.7-0.2-0.2-0.1-0.3-0.2-0.5-0.4h-0.2l-0.6 0.3 0.6 0.3z"/>
	<path fill="inherit" d="m114.5 4.6l0.5 0.2c0.1 0 0.1 0.1 0.2 0s0.3-0.2 0.4-0.2c-0.2-0.1-0.3-0.2-0.5-0.3 0 0-0.1 0-0.1 0.1l-0.5 0.2z"/>
	<path fill="inherit" d="m99.9 3.9c0 0.1 0.1 0.2 0.1 0.2h1.2s0.1-0.1 0.1-0.2c0 0 0-0.2-0.1-0.2-0.2-0.1-0.3-0.1-0.4-0.2-0.3 0.1-0.6 0.1-0.8 0.2-0.2-0.1-0.4-0.3-0.6-0.4-0.1 0-0.2 0.2-0.3 0.2 0.2 0.1 0.3 0.3 0.4 0.4 0.2 0.1 0.3 0 0.4 0z"/>
	<path fill="inherit" d="m86.7 2.5c0.1 0.1 0.3 0.1 0.4 0.2h0.2c0.1-0.1 0.3-0.2 0.6-0.3l-0.6-0.1h-0.1c-0.3 0.1-0.4 0.1-0.5 0.2z"/>
	<path fill="inherit" d="m88.8 2.3l0.4 0.4c0.2-0.1 0.3-0.2 0.5-0.3-0.2-0.1-0.5-0.2-0.7-0.3 0 0-0.1 0.2-0.2 0.2z"/>
	<path fill="inherit" d="m156.6 4.5c-0.1-0.1-0.2-0.3-0.2-0.3-0.2 0-0.5 0.2-0.7 0.3 0.1 0.1 0.3 0.2 0.4 0.4l0.5-0.4z"/>
	<path fill="inherit" d="m172 12.6h1.2c0.1 0 0.2-0.1 0.3-0.2-0.1-0.1-0.2-0.3-0.3-0.3-0.9-0.2-1.7-0.4-2.6-0.4-0.3 0-0.5-0.1-0.8-0.2-1-0.3-2.1-0.5-3.2-0.6-0.7-0.2-1.4-0.5-2.1-0.6l-2.1-0.3h0.5c0.8 0.1 1.6 0.3 2.4 0.4 0.6 0.1 1.2-0.1 1.7 0.1 1.8 0.4 3.6 0.9 5.3 1.3 0.2 0 0.4-0.2 0.5-0.3 0-0.1 0-0.4-0.1-0.4-0.7-0.2-1.4-0.5-2.1-0.6-2.5-0.4-5-0.9-7.5-1.2-0.3 0-0.6-0.1-0.9-0.1l0.2-0.1c-0.1-0.1-0.3-0.2-0.4-0.3l-2.4-0.3c-0.1 0-0.3 0-0.4 0.1 0.1 0.1 0.2 0.3 0.3 0.4h0.2l2.3 0.1v0.1c-1.6-0.1-3.2-0.2-4.8-0.2-1.4-0.1-2.7-0.1-4.2-0.2l-4.4-0.2c-0.1 0-0.3-0.1-0.4-0.2 0.1 0 0.2-0.1 0.2-0.2 0.1 0 0.1 0 0.2-0.1h1.1 0.2 0.2 1.1 1.1c0.1 0 0.1 0.1 0.2 0.1l6.1 0.4c0.1 0 0.2-0.1 0.3-0.2l-0.2-0.2c-1.1-0.1-2.1-0.1-3.2-0.2v-0.1h-0.4 0.1c-0.2-0.1-0.4-0.2-0.6-0.2-2.5-0.1-4.8-0.3-7.2-0.4-0.4 0-0.8 0.1-1.2 0.1 0.4 0.1 0.7 0.2 1.1 0.2-2-0.1-4-0.2-6.1-0.3-0.4 0-0.8 0.1-1.2 0.1l1.2 0.3c-0.4 0-0.8-0.1-1.1-0.1-0.5-0.1-1-0.1-1.6-0.2h1.5c-0.4-0.1-0.7-0.3-1.1-0.4l4 0.3c1.1 0.1 2.2 0.1 3.4 0.1-0.4-0.2-0.9-0.4-1.3-0.4-1.1-0.1-2.2-0.1-3.3-0.2 0.4 0 0.8-0.1 1.1-0.1 2.1 0.1 4.1 0.2 6.2 0.3l7.2 0.2 2.5 0.1c0.1 0 0.1-0.1 0.2-0.2h1.1-0.1l0.4 0.3c0.1 0.1 0.2 0.3 0.3 0.2 0.2 0 0.3-0.2 0.5-0.3-0.1-0.1-0.1-0.2-0.2-0.2h1.5l2.5 0.1c0.1 0 0.2-0.2 0.3-0.3-0.1-0.1-0.2-0.2-0.3-0.2h-1.3c-0.3 0-0.7 0-1-0.1-0.2-0.1-0.5-0.5-0.6-0.4-0.8 0.8-1.6 0.1-2.3 0.1-1 0.1-2-0.2-3.1-0.3-1.1 0-2 0.2-3 0.2-0.7 0-1.4-0.3-2.1-0.4-0.7 0-1.4 0-2.1 0.2h-0.4c-0.5 0-1-0.4-1.6-0.3-1 0.2-2-0.1-3.1-0.2h-0.1l-0.6 0.3h0.1c-0.2 0-0.4 0.1-0.6 0.1-0.7 0.2-1.2-0.4-1.9-0.3-0.5 0.1-1 0.1-1.5 0 0.2 0 0.5 0 0.7-0.1v-0.2c-0.3-0.1-0.7-0.3-1-0.4-0.1 0-0.2 0-0.2 0.1 0 0-0.1 0.1-0.1 0.2s0.1 0.1 0.1 0.2c0 0 0.1 0 0.1 0.1-0.4 0-0.7-0.1-1.1-0.1h-0.1l-0.6 0.3c0.2 0.1 0.4 0.2 0.5 0.2s0.2 0.1 0.2 0.1c1 0.2 2 0.4 3 0.5-1.7-0.1-3.3-0.3-5-0.4-1-0.1-2 0-3 0 0.2 0.1 0.4 0.3 0.6 0.3-0.4 0-0.8-0.1-1.2-0.1 0.2-0.1 0.4-0.1 0.7-0.2-0.3 0-0.7-0.1-1-0.1-0.1 0-0.1 0.1-0.2 0.2v0.1c-0.3 0-0.7-0.1-1-0.1-0.1-0.1-0.1-0.2-0.2-0.2-0.3 0-0.7 0.1-1 0.1h-0.1c-0.5-0.2-0.9-0.3-1.4-0.4-0.1 0-0.2 0.2-0.3 0.2l0.2 0.2-5.2-0.1c-0.1 0-0.3-0.1-0.4-0.1l2.7 0.2v-0.1c0.1 0 0.3 0.1 0.4 0.1s0.2-0.2 0.3-0.3l-0.2-0.2h-3.9c-0.1 0-0.1 0.1-0.2 0.1 0.1 0.1 0.2 0.1 0.2 0.2l-0.1 0.1h-0.7s0.1-0.1 0.1-0.2c-0.1-0.1-0.1-0.2-0.2-0.2h-0.1c-0.1-0.1-0.2-0.1-0.3-0.2s-0.3-0.1-0.4-0.1c-0.3 0-0.7 0.1-1 0.1l0.8 0.5h-0.5c0-0.1 0.1-0.1 0.1-0.2l-0.2-0.2h-0.7l0.1-0.1c-0.1-0.1-0.2-0.3-0.3-0.3-1.2 0-2.4 0-3.6 0.1-0.1 0-0.2 0.1-0.2 0.1l0.2 0.2h0.6l-0.1 0.1c0.1 0.1 0.2 0.1 0.2 0.1h-1.2c0.1 0 0.2-0.1 0.3-0.1-0.1-0.1-0.3-0.2-0.4-0.3s-0.3-0.1-0.4-0.1h-0.1c-0.1-0.1-0.1-0.1-0.2-0.1s-0.2 0.1-0.4 0.2h-0.3l0.1 0.1c0.1 0.1 0.2 0.1 0.3 0.2h0.1l0.1 0.1-6.1-0.2 0.4-0.2h0.7c0.1 0.1 0.1 0.1 0.2 0.1 1 0.1 2 0.1 2.9 0.1h0.8c0.1 0 0.2-0.1 0.4-0.2-0.1-0.1-0.2-0.3-0.3-0.3h-0.4c-0.3 0-0.7 0-1-0.1l-3.2-0.1c-0.1 0-0.1 0.1-0.2 0.2h-0.1c-0.2 0-0.4 0.2-0.6 0.3l0.1 0.1h-1.1c0.1 0 0.1-0.1 0.2-0.1-0.1-0.1-0.1-0.2-0.2-0.2-0.4 0-0.8-0.1-1.2-0.1l-3.2-0.1c-0.1 0-0.2 0.1-0.2 0.2 0.1 0.1 0.2 0.1 0.3 0.2l2.1 0.1h0.7l-7.8-0.2h0.1l0.6-0.3c-0.2-0.1-0.4-0.3-0.6-0.3-0.2 0.1-0.4 0.4-0.6 0.6l-3.3 0.1c0.1-0.1 0.1-0.1 0.1-0.2s-0.1-0.2-0.1-0.2c-0.2-0.2-1 0.1-1.4 0.4h-1.6c0.1-0.1 0.3-0.2 0.4-0.2-0.2-0.1-0.4-0.3-0.6-0.3-0.2 0.1-0.3 0.3-0.5 0.5h-0.8c-0.1-0.1-0.2-0.2-0.3-0.2-0.3 0-0.5 0.1-0.8 0.1h-0.5s0-0.1 0.1-0.1c0-0.1-0.1-0.2-0.1-0.2-0.2-0.2-0.8 0-1.2 0.3l-3.7-0.1h-0.6v-0.1c-0.1-0.1-0.2-0.2-0.3-0.2s-0.2 0.2-0.3 0.3h-0.6l0.1-0.1c-0.1 0-0.1-0.1-0.2-0.1h-0.2v-0.1c-0.2 0-0.4 0-0.5 0.1l-0.1 0.1h-0.4c0-0.8 0.3-0.6 0.6-0.6 0.5-0.1 1-0.1 1.6-0.2h1.3c0.1 0 0.2-0.2 0.3-0.3-0.1-0.1-0.2-0.2-0.3-0.2-0.3-0.1-0.7-0.1-1-0.1l-1.8-0.1h-0.1-0.1l-1.4-0.1c-0.4 0-0.7 0.1-1.1 0.2-0.1 0-0.1 0.2-0.2 0.3 0 0 0.1 0.1 0.2 0.1h0.8c0.2 0 0.4-0.3 0.3 0.5 0 0.1 0.1 0.3 0.2 0.5h-0.4c-0.1-0.1-0.1-0.2-0.2-0.2l-1.9 0.1h-0.7c-0.1-0.1-0.1-0.1-0.2-0.1s-0.1 0.1-0.2 0.1h-0.3v-0.5c-0.1 0.1-0.3 0.2-0.4 0.2-0.1 0.1-0.2 0.2-0.3 0.2s-0.3 0-0.4 0.1h-0.6c0.1-0.6 0.3-0.5 0.6-0.5 0.5-0.1 1-0.1 1.6-0.2h1.3c0.1 0 0.2-0.2 0.3-0.3-0.1-0.1-0.2-0.2-0.3-0.2h-0.1c-0.4-0.1-0.9-0.2-1.3-0.3-0.1 0-0.2 0-0.2 0.1l-1.1-0.1h-0.1-0.1l-1.4-0.1c-0.2 0-0.5 0-0.7 0.1h-0.1s-0.1 0-0.1 0.1c-0.1 0-0.1 0-0.2 0.1-0.1 0-0.1 0.2-0.2 0.3 0 0 0 0.1 0.1 0.1h0.7 0.3s0.1 0 0.1-0.1c0.1 0 0.1 0.2 0.1 0.5 0 0.1 0 0.2 0.1 0.3h-0.6-0.1-1.6v-0.3c-0.2 0-0.4-0.2-0.5-0.1-0.3 0.3-0.5 0.5-0.9 0 0-0.1-0.1 0-0.2 0.1v-0.2c-0.1 0.1-0.3 0.2-0.4 0.2s-0.1 0.1-0.2 0.1h-1.5l0.1-0.1c-0.1-0.2-0.1-0.4-0.2-0.5s-0.2 0-0.3 0h-0.1c0.1 0 0.1-0.1 0.2-0.2 0-0.1-0.1-0.1-0.1-0.2h1c0.1 0 0.2-0.1 0.3-0.2-0.1-0.1-0.2-0.1-0.3-0.2-1-0.1-1.9-0.1-2.9-0.2h-0.3v-0.1c-0.2 0.2-0.3 0.1-0.3 0.1l0.3-0.2c-0.1-0.1-0.1-0.2-0.2-0.2-0.5-0.1-1-0.2-1.5-0.2-0.1 0-0.2 0.2-0.3 0.2 0.1 0.1 0.2 0.3 0.2 0.3s-0.1 0-0.1 0.1l-0.3 0.3h-0.6c-0.3 0-0.7-0.1-1 0-0.1 0-0.2 0.1-0.2 0.2-0.3 0-0.6 0-0.9-0.1 0-0.2-0.1-0.3-0.1-0.3-0.5-0.1-1-0.2-1.5-0.1h-0.1c-0.4 0-0.9-0.1-1.4-0.1 0 0-0.1 0-0.1 0.1-0.2 0-0.3 0.1-0.4 0.2h-0.2-0.3c-0.3 0-0.7-0.1-1 0-0.1 0-0.1 0.1-0.2 0.1h-0.5-0.4c-0.1 0-0.1-0.2-0.2-0.2-0.5-0.1-1-0.2-1.5-0.1-1.4 0.1-2.8 0.3-4.2 0.4h-0.5c-0.1 0-0.3 0-0.4 0.1-1.4 0.1-2.8 0.1-4.3 0.1-0.1-0.1-0.1-0.1-0.2-0.1h-0.8c-0.2 0-0.4-0.1-0.6 0l-0.1-0.1c0.1-0.1 0.1-0.3 0.2-0.3h1.8 0.4c-0.2-0.2-0.3-0.4-0.5-0.5-0.1-0.1-0.2 0-0.2 0h-1.4c-0.1-0.2-0.3-0.4-0.4-0.4-0.2 0-0.3 0.2-0.4 0.4h-1-0.3c-0.1 0-0.1 0-0.2 0.1h-2.2c-0.1-0.1-0.2 0-0.2 0h-3.5c-0.5-0.1-1-0.2-1.5-0.1-0.4 0-0.8 0.1-1.2 0.2h-2.9c-0.7 0-1.5-0.2-2.2-0.2-0.9 0-1.8 0.3-2.7 0.4-1.9 0.1-3.7-0.1-5.6 0.1-1.8 0.1-3.6 0-5.5 0.1 0 0.3-0.1 0.5-0.2 0.7h0.9c0.9-0.1 1.9-0.2 2.8-0.3h0.3c-0.1 0-0.2 0.1-0.3 0.1l-3.3 0.7v-0.2h-0.6c-0.2 0.1-0.5 0.4-1 0.3-1.7-0.2-3.3-0.3-4.9-0.3-0.8 0.5-1.2 0.4-1.1 0.7 0.3 0 0.9 0 1.5 0.1 0 0.1 0 0.2 0.3 0.4-2 0 0.2 0.6-2.6-0.1-0.1 0-0.2 0-0.3 0.1s-0.1 0.3-0.2 0.4c-0.1 0.6-0.1 1.3-0.1 1.9v1.1c-0.2 0.7-0.6 0.7-0.8 1.1 0 0.1 0.1 0.2 0.2 0.3 0.2 0.3 0.2 0.7-0.1 0.8-0.4 0.1-0.5 0.1-0.3 0.8 0.1 0.4 1 2.5 0.3 5.4-0.1 0.5-0.1 0.7 0 0.7 0.3 0.2 0.8 0.5 1 0.2 0.7-1 2.3 0.1 3.3 0.2h0.5c1.7-0.1 3.4-0.1 5.2-0.2 0.2 0.1 0.5 0.1 0.6 0.2h0.5c1.9-0.1 3.8-0.1 5.7-0.2 1 0 2-0.1 3.1-0.2 0.5 0 1 0.1 1.5-0.1 0.4-0.2 1.8 0 2.2-0.3 0.4 0 0.7 0.1 1.1 0.1 0.7 0 1.3 0.1 2 0.1 0.1 0 0.2 0 0.2-0.1s0.1-0.2 0.1-0.3c0.4 0 0.9 0 1.6 0.1 0.8 0 1.6 0.1 2.4 0.2 0.7 0 1.3 0.1 2 0.1 0.1 0 0.2 0 0.2-0.1 0.2-0.6 0.2-0.6 0.5-0.5 0.6 0.1 1.1 0 1.7 0 0.2 0 0.4-0.1 0.6-0.1h0.4c0.5 0.1 1 0.1 1.5 0h0.6l0.2 0.2c0.3 0.2 0.8 0 1.2 0 1 0 2-0.1 3-0.2 0.4 0.1 0.9 0.1 1.3 0h0.5l0.2 0.2c0.3 0.2 0.8 0 1.2 0 1.5-0.1 2.9-0.2 4.3-0.2h4.4c0.5 0 0.9 0.1 1.4 0h4.5c0.7 0.2 1.4 0.6 2.1 0.5 0-0.2 0-0.3-0.1-0.5 0 0 0.1 0 0.1-0.1h1.6c0.9 0.2 2 0.2 3.2 0.2 0.4 0.2 0.9 0.3 1.3 0.3v-0.3h1.2c0.6 0 1.3 0.1 1.9 0.1 1 0 1.9 0.1 2.9 0.1 0.6 0 1.4-0.4 1.9 0 0.2 0.1 0.4 0.3 0.5 0.1 0.1-0.1 0.1-0.2 0.1-0.3 0.3 0 0.6 0.1 0.9 0.1 0.6 0 1.3 0.1 1.9 0.1 0.3 0 0.6 0.1 0.9 0.1 0.6 0 1.2-0.1 1.8-0.2 0.1 0 0.1 0.1 0.2 0.1 0.2 0.1 0.4 0.3 0.5 0.1 0.1-0.1 0.1-0.2 0.1-0.3h0.5 0.5c0.4 0.1 0.7 0.1 1.1 0.1 0.6 0.1 1.1 0.2 1.7 0.2 1-0.1 2-0.3 3.1-0.3h0.3c1 0.1 2 0.3 3 0.3 1.5 0 2.9-0.2 4.4-0.2h0.1c0.6 0.1 1.2 0.2 1.8 0.2 0.8 0 1.6 0 2.4-0.1h0.9c1.8 0.1 3.6 0 5.4 0.2 1.2 0.2 2.5-0.3 3.7 0 1.3 0.3 2.6 0.2 3.9 0.3 1.8 0.1 3.6 0.3 5.4 0.4 0.5 0 1.1-0.2 1.6-0.2 2.5 0.1 5.1 0.2 7.6 0.5 0.6 0.1 1.2 0.2 1.7 0.3 0.3 0.1 0.7 0.1 1 0.2 0.2 0 0.4-1.3 0.5 0.1 0 0 0.1-0.1 0.2-0.1 0.4-0.1 0.7-0.1 1.1-0.1 0.3 0 0.6 0.2 0.9 0.2 0.6 0 1.1 0.2 1.6 0.1 1-0.2 2 0.1 3 0.1 0.3 0 0.6-0.1 0.9 0 0.6 0.1 1.3 0.3 1.9 0.3 0.6 0.1 1.1-0.1 1.7 0 0.7 0.1 1.3 0.2 2 0.2 0.6 0 1.2 0 1.8-0.1 0.2 0 0.4-0.1 0.6-0.2h0.2 0.5l-0.1 0.1c0.1 0.1 0.2 0.2 0.2 0.1 0.2 0 0.4-0.1 0.6-0.2h0.5l-0.1 0.1c0.1 0.1 0.2 0.3 0.3 0.3 0.5 0.1 0.9 0.1 1.4 0.1 0.6 0.1 1.2 0.2 1.8 0.2h4.4c0.1 0 0.3-0.1 0.4-0.1 0.3 0 0.5 0.1 0.8 0.1h0.6 0.1 0.4 0.4 3.6c0.1 0 0.3-0.1 0.4-0.1l-0.1-0.1-2.7-0.4h-0.6c-1.3 0-2.6-0.1-3.8-0.2h-0.7c-0.1 0-0.2 0.2-0.3 0.2 0 0 0 0.1 0.1 0.1l-0.6-0.1c0.1 0 0.1 0 0.2-0.1-0.1-0.1-0.2-0.2-0.3-0.4-0.2 0.1-0.3 0.3-0.5 0.4h-0.2-0.6c0.1 0 0.1-0.1 0.2-0.1-0.2-0.2-0.4-0.3-0.6-0.5 0 0-0.1 0.1-0.2 0.1 0 0-0.1 0-0.1-0.1s0-0.2 0.1-0.2c0.4-0.4 0.8-0.7 1.2-1.1 0 0 0.1 0.3 0.1 0.4v0.3c0.1 0 0.2 0.1 0.2 0 0.1-0.3 0.2-0.7 0.3-1.1 0-0.2-0.2-0.5-0.3-0.5-0.4-0.1-0.7-0.1-1.1 0-0.2 0.1-0.4 0.4-0.6 0.6l0.1 0.1-0.6 0.3c-0.1 0.1-0.2 0.2-0.3 0.2 0.1 0.1 0.2 0.3 0.3 0.3 0.4-0.1 0.7-0.2 1.1-0.4v0.1c-0.4-0.1-0.8 1.2-1.3 0.6-0.1-0.1-0.5 0.2-0.5 0.1-0.1-0.4-0.2-0.5-0.3-0.5 0.1-0.2 0.3-0.5 0.4-0.7l-0.1-0.3c-0.2 0.2-0.4 0.5-0.7 0.8 0.1 0.1 0.2 0.3 0.2 0.3-0.1 0.1-0.2 0.2-0.2 0.3-0.5 0.6-0.8-0.5-1.3-0.2-0.2-1-0.5-0.8-0.8-0.3-0.1 0.1-0.2 0-0.3 0h-0.1c0.1-0.3 0.2-0.5 0.2-0.8v-0.1c0.2-0.1 0.4-0.3 0.6-0.5-0.1-0.2-0.2-0.4-0.3-0.7-0.2 0.3-0.3 0.6-0.4 0.8-0.4-0.1-0.7-0.1-1.1 0-0.2 0.1-0.4 0.4-0.6 0.6l0.3 0.2c-0.5 0-1 0.2-1.4-0.4 0 0-0.1 0.1-0.2 0.1-0.3 0-0.6 0.1-0.9 0.1-0.6 0-1.2-0.1-1.7-0.2-0.1 0-0.3 0-0.4-0.1l0.4-0.4h2.6l-2.4-1.3h0.3c0.2 0 0.5-0.1 0.7-0.1s0.4 0.1 0.6 0.1c0.1 0 0.3-0.2 0.4-0.3h0.1 0.2c0.7 0.2 1.4 0.5 2.2 0.1 0.6 0.1 1.3 0.1 1.9 0.2 2.7 0.3 5.3 0.6 8 1 0.7 0.1 1.3 0.2 2 0.2 0.1 0 0.2-0.2 0.3-0.3-0.1-0.1-0.1-0.2-0.2-0.2-0.5-0.1-1-0.2-1.6-0.4-0.2-0.1-0.5-0.1-0.7-0.2 2.2 0.3 4.4 0.5 6.5 0.8 0.7 0.1 1.3 0.2 2 0.2 0.1 0 0.2-0.2 0.3-0.3-0.1-0.1-0.1-0.2-0.2-0.2-0.5-0.1-1-0.2-1.6-0.4-0.4-0.1-0.9-0.1-1.1-0.6-0.1-0.2-0.2-0.5-0.3-0.8 0.1 0 0.2 0 0.3 0.1 0.4 0.1 0.4-0.4 0.5-0.8 0 0 0-0.1-0.1-0.2 0.9 0.1 1.7 0.2 2.6 0.3 1.1 0.2 2.2 0.4 3.3 0.7 0.4 0.1 0.4-0.4 0.5-0.8 0-0.1-0.2-0.3-0.4-0.4-0.1-0.1-0.3 0-0.4-0.1-0.1 0-0.1-0.2-0.2-0.3-0.3 0.3-0.2 0.1-0.1 0.1zm-26.1-3c0.1-0.1 0.2-0.4 0.2-0.3 0.1 0.1 0.2 0.3 0.3 0.4-0.2 0-0.3 0-0.5-0.1zm-117.9-6.8l3.9 0.3c0.1 0 0.2 0.1 0.3 0.1l-0.1 0.1 0.1 0.1h-0.4-1.7-0.1-2c-0.3-0.1-0.5-0.2-0.8-0.4-0.1 0-0.1-0.1-0.2-0.2l0.1-0.1c0.4 0.1 0.6 0.1 0.9 0.1zm6.8 0c1.1 0.1 2.2 0.2 3.4 0.3 0.2 0 0.4 0.2 0.7 0.3-0.2 0-0.4 0.1-0.6 0.1-0.8 0-1.6-0.1-2.4 0-0.2 0-0.3 0.3-0.5 0.5h-1.9c0.1 0 0.1-0.1 0.2-0.1h0.8s0.1 0 0.1-0.1h0.3c0.1 0 0.2-0.2 0.3-0.2-0.1-0.1-0.2-0.3-0.3-0.3h-0.7c-0.2-0.1-0.3-0.1-0.5-0.2-0.1 0-0.1-0.1-0.2-0.2 0.4-0.1 0.8-0.1 1.3-0.1zm27.8 0.5h-0.6 0.9l-0.1 0.1c-0.2 0-0.2-0.1-0.2-0.1zm71.8 3.8c-1.2 0-2.3 0-3.5-0.1l-0.4-0.2 3.9 0.3zm13.5 1c-0.1 0.1-0.2 0.2-0.3 0.2h-0.4l-2.1-0.3c1 0.1 1.9 0.1 2.8 0.1zm5 1.9h-0.5c-0.1 0-0.1-0.1-0.2-0.1v-0.2h0.5c0.1 0.2 0.1 0.2 0.2 0.3zm-16.1-1.2c-0.1 0-0.2 0.1-0.2 0.1-0.2 0-0.5-0.1-0.7-0.2h0.8s0.1 0 0.1 0.1zm-1-0.1h-0.1 0.1zm-115.2-5.3c0.1-0.1 0.3-0.2 0.4-0.2 1.7-0.1 3.5-0.2 5.2-0.3h0.1c-0.1 0-0.1 0.1-0.2 0.1s-0.2 0.2-0.3 0.3c0.1 0.1 0.2 0.1 0.2 0.2h-1.7-0.1c-0.1-0.1-0.2-0.1-0.3-0.1l-3.2 0.1-0.1-0.1zm117.6 13.4h3.7c-0.1 0-0.2 0.1-0.3 0.1h-2.3c-0.3 0-0.7 0.1-1.1-0.1zm-118.5-13.7h0.3c-0.1 0-0.2 0.1-0.3 0.1l-1.2 0.2h-0.2-1.9 0.4c1-0.1 2-0.2 2.9-0.3zm-9.4 1.9l0.2 0.2c-1.5 0-0.6 0.3-1.3 0.2 0.4-0.1 0.8-0.2 1.1-0.4zm133.3 12c0.1 0.1 0.1 0.1 0.2 0.1-0.1 0.1-0.2 0.2-0.3 0.2s-0.2 0.1-0.3 0c-0.2-0.1-0.3-0.3-0.4-0.5v-0.1h0.5l0.3 0.3zm1-7.5l-0.6-0.1h1c0.1 0 0.1 0.1 0.2 0.1h-0.6zm2.8 0c0.3 0 0.6 0 0.9 0.1-0.1 0.1-0.2 0.3-0.3 0.3-0.4 0-0.7-0.1-1-0.1 0.1-0.1 0.3-0.3 0.4-0.3zm1.4 0.5c-0.1 0-0.2-0.1-0.3-0.2l0.2-0.2c1 0.1 1.9 0.1 2.9 0.2-0.1 0.1-0.2 0.2-0.3 0.2h-0.5-0.2-0.3-1.5zm4.5-0.2c1.1 0 2.2 0.1 3.3 0.2-0.6 0.1-1.1 0.2-1.7 0.2-0.5 0-0.9-0.1-1.3-0.2-0.1-0.1-0.2-0.1-0.3-0.2zm3.9 0.2c0.4 0.1 0.8 0.1 1.2 0.2-0.3 0-0.6 0-0.9-0.1-0.2 0-0.2 0-0.3-0.1zm0.9 3.7c-0.1 0.1-0.4 0.3-0.3 0.4h-0.1s-0.1 0.1-0.1 0.2 0.1 0.2 0.1 0.2h0.3c-0.1 0-0.2 0.1-0.4 0.1l-0.3-0.3c0.1-0.3 0.3-0.6 0.4-0.9 0.1-0.1 0.2 0 0.3 0s0.2 0 0.3 0.1c-0.1 0.1-0.1 0.2-0.2 0.2zm-2.2 0.9h-0.3l-0.4-0.1c-0.1 0-0.1-0.1-0.2-0.1l0.3-0.3c0.1-0.1 0.2-0.1 0.3-0.1 0.1 0.1 0.3 0.2 0.4 0.4 0 0 0 0.1 0.1 0.2h-0.2zm2.7-0.4c0-0.1 0-0.2-0.1-0.2 0.1-0.2 0.2-0.3 0.3-0.5l0.3 0.3h-0.1s-0.2 0.1-0.4 0.4zm1-3.9c0.4 0 0.7 0 1.1 0.1 0.1 0 0.2 0 0.3 0.1-0.4-0.1-0.9-0.1-1.4-0.2zm-23.8-3.5c-0.3 0-0.7 0-1-0.1-0.4 0-0.7-0.1-1.1-0.1l2.1 0.2zm-15.9-0.9v0.1h-0.1l0.1-0.1zm-56.8-2.2h1.2c0.1 0.1 0.3 0.2 0.4 0.2h0.2c-0.6 0.1-1.2 0.6-1.8-0.1-0.1-0.1-0.1-0.1-0.2-0.1 0 0.1 0.1 0 0.2 0zm-0.3-0.9c-0.3 0.1-0.7 0-1 0h1zm-1.3 1.1h0.2l0.1-0.1h0.7c0 0.2-0.1 0.4-0.1 0.7v0.1h-0.4s-0.1-0.1-0.1-0.2-0.2 0-0.3 0.2l-2-0.1c-0.1-0.2-0.1-0.3-0.2-0.4s-0.2 0-0.3 0h-0.1c-0.2-0.1-0.4-0.1-0.5 0-0.5 0.1-1.1 0.5-1.6-0.1-0.1-0.1-0.1-0.1-0.2-0.1 0.1 0 0.2-0.1 0.3-0.1h1.5 1.1l0.1 0.1c0.5-0.1 1.1 0 1.8 0zm-15.4-0.2c0.4 0.1 0.7 0.1 1.1 0.1l5.3-0.1h0.7 0.1c0.6 0.1 1.2 0.1 1.9 0.2h0.2l0.3-0.3h0.5c-0.1 0.2-0.1 0.5-0.2 0.8h-1.8c-0.1-0.1-0.2-0.2-0.3-0.2s-0.2 0.1-0.3 0.2h-0.4v-0.2c-0.1 0-0.3 0.1-0.4 0.1h-0.1c-0.4-0.6-0.8-0.1-1.2 0.1l-3.8-0.1h-0.1-0.1-0.6-0.1l-3.6-0.1c0-0.1-0.1-0.1-0.1-0.2l-0.1 0.2-3.5-0.2c0.1-0.2 0.3-0.2 0.5-0.2 0.3 0.1 0.6 0.1 0.8 0.1l5.3-0.2zm-31.5-0.6c0.5 0 1-0.1 1.5-0.1 0 0.1-0.1 0.3-0.1 0.4h-1.7c0.1-0.1 0.2-0.3 0.3-0.3zm136.4 15c-0.1-0.1-0.2-0.1-0.4-0.2 0.1-0.1 0.2-0.1 0.2-0.2 0.1 0 0.2 0.2 0.2 0.4zm-6.1-1h-0.3-0.3c-0.1 0-0.2 0-0.3 0.1 0.1-0.1 0.1-0.3 0.2-0.4h0.7c0 0.1-0.1 0.2-0.1 0.2s0 0.1 0.1 0.1zm11.5-1.9c-0.1 0.1-0.1 0 0 0zm4.2-1l0.1-0.1c0.5-0.5 1.3-0.4 1.7 0.2 0 0 0 0.1 0.1 0.2l-0.1 0.1h-0.1c-0.1 0-0.2-0.1-0.2 0l-1.2-0.2c-0.2-0.1-0.3-0.2-0.3-0.2zm3.4 0.4c0.3 0 0.5 0 0.8 0.1 0.1 0 0.1 0.1 0.2 0.1-0.1 0.1-0.1 0.2-0.2 0.2-0.4-0.1-0.8 0-1.1-0.3s-0.5-0.2-0.6 0.4c0 0.2-0.2 0.2-0.4 0.2v-0.1l0.3-0.2-0.2-0.2c0.1-0.7 0.5-0.7 0.8-0.8 0.2 0 0.4 0.1 0.7 0.1-0.1 0.1-0.2 0.1-0.2 0.1s-0.1 0.1-0.1 0.2c-0.1 0.1-0.1 0.2 0 0.2zm6.4-1.7c-0.2 0-0.4-0.1-0.5-0.2h0.7c0.2 0.1 0.5 0.2 0.7 0.3-0.3 0-0.6 0-0.9-0.1z"/>
	<path fill="inherit" d="m131.7 4.7c-0.1-0.1-0.1-0.2-0.2-0.2-0.9 0.2-1.7 0.2-2.5-0.4-0.7-0.5-1.6 0.1-2.4-0.1-0.8-0.3-1.7-0.1-2.6-0.1-0.1 0-0.1 0.1-0.2 0.1 0 0.1 0.1 0.2 0.1 0.3l0.3 0.3c-0.5 0-1-0.1-1.6-0.5-0.7-0.5-1.6 0.1-2.4-0.1-0.8-0.3-1.7-0.1-2.6-0.1-0.1 0-0.1 0.1-0.2 0.1 0 0.1 0.1 0.2 0.1 0.3 0.3 0.3 0.6 0.5 1 0.4h0.1c0.3 0 0.7 0.1 1 0.1h0.2c0.5 0 1 0.1 1.5 0.2 0.7 0.1 1.4 0.3 2.2 0.4v0.1c0.5 0 1 0 1.5-0.1 0.1 0 0.2-0.4 0.3-0.6 0.5 0 1 0 1.5 0.1 0.1 0 0.1 0.1 0.2 0.1h0.4 0.3l1.5 0.3c0 0.1 0 0.1-0.1 0.2 0.1 0.1 0.2 0.2 0.3 0.2s0.3-0.1 0.4-0.1v0.1h0.7c0.1 0 0.1-0.1 0.2-0.1v-0.1c0.2 0 0.4 0 0.7-0.1 0.1-0.2 0.2-0.5 0.3-0.7z"/>
	<polygon fill="inherit" points="146.1 7.4 146.1 7.4"/>
		<ellipse rx="0" ry="0" fill="inherit" cx="133.1" transform="matrix(.025437 -.9997 .9997 .025437 123.38 139.15)" cy="6.3"/>
	<path fill="inherit" d="m98.8 3c-0.1-0.1-0.2-0.2-0.3-0.2-0.5 0.2-1 0.4-1.4 0.5-0.3 0.1-0.6 0.1-0.9 0.2h-0.1s-0.1 0-0.3-0.1c-0.1 0-0.3 0.1-0.6 0.2l0.8 0.3h0.1c0 0.1 0.1 0.1 0.1 0.1h1.1 1.1c0.1 0 0.1-0.1 0.2-0.2l-0.2-0.2-0.3-0.3c0.1 0 0.2 0 0.3-0.1 0.2 0.1 0.3-0.1 0.4-0.2z"/>
	<path fill="inherit" d="m36.9 1.1h0.3 0.1 1.4c0.2 0 0.5-0.2 0.7-0.3l-0.9-0.2h-0.2-0.1c-0.1 0-0.1 0-0.2-0.1s-0.1-0.3-0.1-0.5c-0.5 0.3-0.8 0.5-1.2 0.8 0 0-0.1 0.1-0.1 0.2 0.2 0 0.3 0.1 0.3 0.1z"/>
	<path fill="inherit" d="m139.7 3.4c0.6 0.1 1.2 0.1 1.8 0.1v-0.1c0.3 0 0.7 0.1 1 0.1 0.1 0 0.1-0.2 0.2-0.3-0.1-0.1-0.1-0.2-0.2-0.2-1 0-1.9-0.1-2.9-0.1-0.1 0-0.2 0.2-0.3 0.3 0.3 0 0.4 0.2 0.4 0.2z"/>
	<path fill="inherit" d="m109 1.9c0 0.1 0.1 0.3 0.2 0.3 0.7 0.1 1.4 0.1 2.2 0.1 2.1 0.1 4.3 0.1 6.4 0.2 1.8 0.1 3.5 0.5 5.3 0.6 2.7 0.1 5.4 0.1 8.1 0.1v0.1c0.4 0 0.9 0.1 1.3 0.1 0.1 0 0.2-0.1 0.2-0.2h0.5l0.2 0.2c0.6 0.1 1.2 0.1 1.8 0.1v-0.1c0.3 0 0.7 0.1 1 0.1 0.1 0 0.1-0.1 0.2-0.2h0.3v0.1c0.1 0.1 0.1 0.3 0.2 0.3 0.4 0.1 0.9 0.2 1.3 0.2 0.3 0 0.5-0.2 0.8-0.4 0.2 0.4 1.6 0.8 1.9 0.5l0.1-0.2c0-0.1-0.1-0.2-0.2-0.2-0.6 0-1.2-0.1-1.8-0.1-0.1 0-0.3-0.1-0.4-0.1h0.1c0.1 0 0.2-0.2 0.3-0.3-0.1-0.1-0.2-0.3-0.3-0.3l-5.1-0.3c-1.7-0.1-3.5 0.4-5.2-0.2-1-0.3-2.1-0.3-3.1-0.3-1.9-0.1-3.8-0.2-5.7-0.2h-4c-0.1 0-0.1 0-0.2 0.1-0.7 0-1.4-0.1-2.1-0.1h-0.1c0-0.1-0.1-0.1-0.1-0.1-0.4-0.1-0.7-0.2-1.1-0.2-0.1 0-0.2 0.2-0.3 0.2h-0.4c-0.1-0.1-0.2-0.3-0.3-0.3-0.1-0.1-0.3-0.1-0.4 0-0.8 0.1-1.5 0.1-2.3 0.2-0.1 0-0.2 0.1-0.3 0.1 0.1 0.1 0.2 0.2 0.3 0.2h0.7zm15.5 0.7c-0.6 0-1.2 0-1.8-0.1 0.5 0 0.9 0 1.4 0.1 0.1-0.1 0.3-0.1 0.4 0z"/>
	<path fill="inherit" d="m160.5 4.9c0.2 0 0.5 0 0.7-0.1 0.1 0 0.2-0.2 0.4-0.4-0.1-0.1-0.2-0.1-0.3-0.2h-1c-0.4 0-0.8-0.1-1.2-0.1-0.1 0-0.2 0.2-0.3 0.3 0.1 0.1 0.2 0.2 0.3 0.2 0.4 0.1 0.9 0.2 1.4 0.3z"/>
	<path fill="inherit" d="m166.1 8.8l2.3 0.1v0.3l0.5-0.3c-0.1-0.1-0.3-0.2-0.4-0.3l-2.4-0.3c-0.1 0-0.3 0-0.4 0.1 0.1 0.1 0.2 0.3 0.3 0.4 0 0.1 0.1 0 0.1 0z"/>
	<path fill="inherit" d="m143.2 3.6c0.4 0.1 0.9 0.2 1.3 0.2 0.3 0 0.5-0.2 0.8-0.4 0.1 0.2 0.8 0.5 1.3 0.6h-0.5s-0.1 0-0.1 0.1l0.1 0.1c0.5 0.1 1.1 0.2 1.6 0.2 0.4 0 0.6 0 1-0.1 0.1 0 0.1-0.1 0.2-0.2h0.2c0.5 0 0.9 0.1 1.4 0.1 0.1 0 0.1-0.2 0.2-0.2 0-0.1-0.1-0.2-0.1-0.2-0.9-0.1-1.8-0.2-2.8-0.3-0.1 0-0.1 0.1-0.2 0.2 0 0 0 0.1 0.1 0.1h-0.5 0.1l0.1-0.2c0-0.1-0.1-0.2-0.2-0.2-0.6 0-1.2-0.1-1.8-0.1-0.7-0.1-1.4-0.3-2.1-0.4-0.1 0-0.1 0.2-0.2 0.3 0 0.2 0.1 0.3 0.1 0.4z"/>
	<path fill="inherit" d="m152.4 4.2h0.2l-0.2 0.2c0.1 0.1 0.2 0.2 0.3 0.2l1.5 0.3c0.2 0 0.5 0 0.7-0.1 0.1 0 0.2-0.2 0.4-0.4l-0.1-0.1 0.1-0.1c-0.2-0.1-0.2-0.2-0.3-0.2h-0.6c-0.7 0-1.3 0-2 0.1 0 0-0.1 0-0.1 0.1 0-0.1 0 0 0.1 0z"/>
	<path fill="inherit" d="m171.2 8.5s0.1-0.1 0.3-0.2c-0.1-0.1-0.2-0.4-0.3-0.4-0.5-0.1-1.1-0.2-1.6-0.2h-0.1c-0.1 0.1-0.1 0.1-0.1 0.2s0.1 0.2 0.1 0.2c0.5 0.2 1.1 0.3 1.7 0.4z"/>
	<path fill="inherit" d="m135.5 5.3c0.1 0.1 0.2 0.2 0.3 0.2s0.3-0.1 0.4-0.1v0.1h0.7c0.1 0 0.1-0.1 0.2-0.1 0-0.1-0.1-0.2-0.1-0.3-0.4-0.2-0.8-0.3-1.2-0.4-0.1 0-0.2 0.4-0.3 0.6z"/>
	<polygon fill="inherit" points="54.5 0.3 54.5 0.3"/>
	<path fill="inherit" d="m161.6 17.8c-0.1 0.1-0.2 0.2-0.3 0.2 0.1 0.1 0.2 0.3 0.3 0.3 0.4-0.1 0.8-0.3 1.2-0.4 0.1 0 0.2-0.1 0.3-0.2-0.1-0.1-0.1-0.2-0.2-0.3s-0.2-0.1-0.3-0.1c-0.4 0.2-0.7 0.4-1 0.5z"/>
	<path fill="inherit" d="m92 2.7c0.1 0 0.1-0.1 0.2-0.2 0-0.1-0.1-0.2-0.1-0.2-0.6 0-1.3-0.1-1.9-0.1-0.1 0-0.1 0.1-0.2 0.2 0.1 0.1 0.1 0.2 0.2 0.2h0.9c0.2 0.1 0.6 0.2 0.9 0.1z"/>
	<path fill="inherit" d="m168.2 15.6c0.2-0.1 0.4-0.3 0.6-0.4l0.4-0.3c-0.1-0.1-0.3-0.2-0.4-0.3h-0.3c-0.2-0.1-0.5-0.3-0.4 0.7 0 0.1-0.1 0.2-0.2 0.3 0.1 0 0.2 0.1 0.3 0z"/>
	<path fill="inherit" d="m82 2.2c-0.1 0-0.1 0.1-0.2 0.2 0.1 0.1 0.1 0.3 0.2 0.3 0.5 0 1 0.1 1.5 0.1l0.1-0.2c0-0.1-0.1-0.2-0.1-0.2h-0.7v-0.1c-0.4-0.1-0.6-0.1-0.8-0.1z"/>
	<path fill="inherit" d="m134.6 4.8l-1.5-0.2-0.1 0.1c0.1 0.1 0.2 0.1 0.3 0.2h0.4c0.2 0 0.5 0.1 0.7 0 0.2 0 0.2-0.1 0.2-0.1z"/>
	<path fill="inherit" d="m44.6 2.5c-0.3-0.1-0.5-0.2-0.8-0.2-0.2 0-0.4 0.2-0.7 0.3 0.2 0.1 0.5 0.3 0.7 0.4 0.4-0.3 0.6-0.4 0.8-0.5z"/>
	<path fill="inherit" d="m169.2 19.9c-0.5-0.1-1-0.1-1.4-0.1-0.1 0-0.2 0.2-0.3 0.2 0.1 0.1 0.1 0.2 0.2 0.2h0.6 0.8l0.2-0.2-0.1-0.1z"/>
	<path fill="inherit" d="m100.3 2.4c-0.3-0.1-0.6-0.2-0.9-0.4-0.2 0.1-0.5 0.2-0.7 0.3 0.3 0.1 0.5 0.3 0.8 0.3 0.2 0.1 0.5-0.1 0.8-0.2z"/>
	<path fill="inherit" d="m166.9 7.7c0.2 0 0.3-0.2 0.5-0.3-0.1-0.1-0.2-0.3-0.4-0.4-0.1-0.1-0.2 0-0.4 0l-0.4 0.2 0.4 0.3c0.1 0 0.2 0.2 0.3 0.2z"/>
	<path fill="inherit" d="m43.6 1.1c0.2 0 0.5-0.1 0.7-0.2s0.4-0.2 0.6-0.4c-0.2-0.1-0.4-0.1-0.6-0.1-0.3 0.1-0.5 0.1-0.7 0.2-0.1 0-0.1 0.2-0.2 0.3 0 0.1 0.1 0.2 0.2 0.2z"/>
	<path fill="inherit" d="m101.6 3.6l0.7 0.3 0.7-0.2-0.6-0.2s-0.1 0-0.3-0.1c-0.1 0-0.3 0.1-0.5 0.2z"/>
	<path fill="inherit" d="m158.2 4.4c-0.2-0.1-0.3-0.2-0.5-0.4h-0.2l-0.6 0.3c0.2 0.1 0.4 0.2 0.6 0.2 0.2 0.1 0.5-0.1 0.7-0.1z"/>
	<path fill="inherit" d="m160.4 18.5c0.2-0.3 0.4-0.6 0.5-0.9l-0.1-0.3c-0.2 0.2-0.4 0.5-0.7 0.8 0.1 0.2 0.2 0.5 0.3 0.4z"/>
	<path fill="inherit" d="m45.6 1.9c-0.2 0-0.4 0.3-0.5 0.5 0.2 0.1 0.3 0.2 0.5 0.4 0.2-0.1 0.3-0.3 0.5-0.4-0.2-0.2-0.3-0.5-0.5-0.5z"/>
	<path fill="inherit" d="m105.7 3.4c-0.1 0-0.2 0.2-0.3 0.2 0.1 0.1 0.2 0.2 0.3 0.2-0.1 0-0.3 0.3-0.4 0.4 0.1 0 0.3 0.1 0.4 0.1s0.3 0.1 0.5 0.1c0 0 0.1-0.1 0.3-0.2-0.1-0.1-0.2-0.3-0.3-0.4 0 0-0.1 0-0.1-0.1 0.1 0 0.3-0.1 0.4-0.1-0.4 0.1-0.6-0.1-0.8-0.2z"/>
	<path fill="inherit" d="m126.2 5.8v0.2c0.3 0 0.5 0.1 0.8 0.1 0.1 0 0.1-0.1 0.2-0.2-0.1-0.1-0.1-0.2-0.2-0.2-0.2 0-0.5 0.1-0.8 0.1z"/>
	<path fill="inherit" d="m95.6 2.7c0.2-0.1 0.3-0.2 0.5-0.3-0.2-0.1-0.5-0.2-0.7-0.3-0.1 0-0.1 0.1-0.2 0.2-0.2-0.1-0.4-0.2-0.6-0.2-0.1 0-0.1 0.1-0.2 0.2 0.1 0.1 0.3 0.3 0.4 0.5 0.2-0.1 0.3-0.2 0.4-0.3 0.1 0 0.3 0.1 0.4 0.2z"/>
	<path fill="inherit" d="m156.3 8c0.2 0 0.4-0.1 0.6-0.2-0.2-0.1-0.4-0.1-0.6-0.2-0.2 0-0.4 0.1-0.6 0.1 0.2 0.2 0.4 0.3 0.6 0.3z"/>
	<path fill="inherit" d="m162.9 4.5c-0.1-0.1-0.2-0.3-0.2-0.3-0.2 0-0.5 0.2-0.7 0.3 0.1 0.1 0.3 0.2 0.4 0.4l0.5-0.4z"/>
	<path fill="inherit" d="m100.8 2.1c-0.1 0-0.1 0.1-0.2 0.2 0.1 0.1 0.3 0.3 0.4 0.5 0.2-0.1 0.3-0.3 0.5-0.4-0.2-0.1-0.4-0.2-0.7-0.3z"/>
	<path fill="inherit" d="m84 3.7c0.2 0.1 0.3 0.2 0.5 0.3 0.2-0.1 0.4-0.2 0.5-0.2-0.2-0.1-0.3-0.2-0.5-0.2-0.1 0-0.3 0.1-0.5 0.1z"/>
</g>
</svg>